<?xml version="1.0" encoding="UTF-8"?>
<svg version="1.1" xmlns="http://www.w3.org/2000/svg" width="192" height="192">
<path d="M0 0 C63.36 0 126.72 0 192 0 C192 63.36 192 126.72 192 192 C128.64 192 65.28 192 0 192 C0 128.64 0 65.28 0 0 Z " fill="#FDFDFD" transform="translate(0,0)"/>
<path d="M0 0 C32.34 0 64.68 0 98 0 C96.02 2.31 94.04 4.62 92 7 C91.649375 7.9075 91.29875 8.815 90.9375 9.75 C90 12 90 12 87.4375 13.375 C84.58143049 14.87227246 84.58143049 14.87227246 84.1875 18.6875 C84.0946875 20.3271875 84.0946875 20.3271875 84 22 C82.02 22.66 80.04 23.32 78 24 C77.01 19.545 77.01 19.545 76 15 C75.34 15 74.68 15 74 15 C73.82984375 16.06734375 73.82984375 16.06734375 73.65625 17.15625 C72.95406128 20.19906778 71.80938519 22.6680739 70.5 25.5 C67.15839367 33.97884596 67.22786865 42.40443334 67.06494141 51.42138672 C66.96858074 55.24755742 66.70894674 59.05789411 66.4375 62.875 C66.18925533 66.4726382 65.99902641 69.96440565 66.09765625 73.5703125 C66 77 66 77 65.01171875 79.921875 C63.75745797 83.73792711 63.74159627 87.28293631 63.8125 91.25 C63.82216797 92.37825195 63.82216797 92.37825195 63.83203125 93.52929688 C63.89813176 98.32571516 64.19178816 103.04263534 64.7890625 107.8046875 C65.01054606 110.10975714 64.96123152 112.31242751 64.875 114.625 C64.79167207 119.29969706 66.14072219 122.73915502 68 127 C70.62901288 125.47793991 72.84365964 124.15634036 75 122 C75 126 75 126 73.4609375 127.60546875 C72.42839844 128.38857422 72.42839844 128.38857422 71.375 129.1875 C67.48451785 132.38374417 64.95163629 135.69263894 62.3046875 139.94921875 C61 142 61 142 58.875 144.4375 C54.65701257 150.20208283 52.61372131 156.94220491 52 164 C52.66 164 53.32 164 54 164 C53.9071875 162.515 53.9071875 162.515 53.8125 161 C53.8125 156.69221307 54.89645908 152.76559795 57 149 C57.99 148.34 58.98 147.68 60 147 C59.84144531 147.95390625 59.68289062 148.9078125 59.51953125 149.890625 C57.91726124 161.21750714 57.04490279 174.85144206 63 185 C64.55690422 187.01700427 66.00397164 188.37166107 68 190 C68.66 190.66 69.32 191.32 70 192 C46.9 192 23.8 192 0 192 C0 128.64 0 65.28 0 0 Z " fill="#FEFEFE" transform="translate(0,0)"/>
<path d="M0 0 C1.02962715 3.36237617 1.07133135 6.37084722 1 9.875 C0.95922395 14.04435144 1.09081143 17.90865143 2 22 C2.66 22 3.32 22 4 22 C4.0928125 20.700625 4.0928125 20.700625 4.1875 19.375 C5.26462828 14.90077483 6.67207418 13.17665646 10 10 C12.5 9.25 12.5 9.25 15 10 C20.40761061 15.40761061 22.28694566 20.08657147 22.3125 27.8125 C22.21490404 33.63165899 21.80053842 37.88177461 19 43 C16.3125 45 16.3125 45 14 46 C14.68707031 46.30292969 15.37414062 46.60585938 16.08203125 46.91796875 C23.43701952 50.33767002 23.43701952 50.33767002 26.125 53.5 C27.06003326 56.17152361 27.2408372 58.19023262 27 61 C22.125 60.125 22.125 60.125 21 59 C21.28875 59.62648437 21.5775 60.25296875 21.875 60.8984375 C22.24625 61.71570312 22.6175 62.53296875 23 63.375 C23.556875 64.59316406 23.556875 64.59316406 24.125 65.8359375 C25 68 25 68 25 70 C25.66 70 26.32 70 27 70 C27 70.66 27 71.32 27 72 C24.1875 72.25 24.1875 72.25 21 72 C17.87596657 68.62015242 16.61864143 64.69095325 15.0625 60.4375 C13.98450415 57.9644507 12.69855711 56.08459281 11 54 C9.6786742 62.7419859 8.66834412 71.137418 9 80 C11.40398806 80.63821082 11.40398806 80.63821082 14 81 C14.639375 80.505 15.27875 80.01 15.9375 79.5 C18 78 18 78 21.1875 78.1875 C22.5796875 78.5896875 22.5796875 78.5896875 24 79 C24.33 79.66 24.66 80.32 25 81 C24.071875 81.226875 23.14375 81.45375 22.1875 81.6875 C18.49280817 83.2088437 17.67517239 84.46352496 16 88 C16.53625 87.505 17.0725 87.01 17.625 86.5 C20.72140596 84.54437518 22.39853135 84.39975523 26 85 C28.375 87.5 28.375 87.5 30 90 C29.67 90.66 29.34 91.32 29 92 C27.02 92 25.04 92 23 92 C23.680625 92.763125 24.36125 93.52625 25.0625 94.3125 C26.0215625 95.6428125 26.0215625 95.6428125 27 97 C26.505 98.485 26.505 98.485 26 100 C25.34 99.01 24.68 98.02 24 97 C21.43717258 96.27034634 21.43717258 96.27034634 19 96 C19 96.66 19 97.32 19 98 C19.61875 98.226875 20.2375 98.45375 20.875 98.6875 C23.61410209 100.37929835 24.05024472 101.99244161 25 105 C31.67996518 101.33574726 35.5237178 97.98596195 38.25 90.625 C38.4975 89.75875 38.745 88.8925 39 88 C43.94882698 92.94882698 43.45611921 100.99001703 43.5625 107.5625 C43.61212891 108.48224609 43.66175781 109.40199219 43.71289062 110.34960938 C43.76924432 114.08237055 43.79647903 116.85940497 41.61499023 119.98339844 C38.77318173 122.64854869 36.79033974 123.88638243 32.90234375 124.4453125 C31.92394531 124.33960937 30.94554687 124.23390625 29.9375 124.125 C26.08393379 123.73002212 24.38240637 123.8030319 20.890625 125.6015625 C17.70838132 128.24196469 15.9188136 130.70163936 13.8125 134.25 C13.47154297 134.82194092 13.13058594 135.39388184 12.77929688 135.9831543 C10.31837751 140.20348821 8.4591397 144.3489922 7 149 C7.6290625 148.32453125 8.258125 147.6490625 8.90625 146.953125 C16.91832048 138.60319613 23.31353177 135.33283303 34.265625 132.02734375 C36.96085999 131.01470546 38.80794307 129.84237165 41 128 C40.25637134 137.2953582 38.17562975 147.1478303 33 155 C30.03 154.67 27.06 154.34 24 154 C24 156.31 24 158.62 24 161 C23.05125 161.144375 22.1025 161.28875 21.125 161.4375 C14.46300655 163.33515874 9.50847524 169.29236415 4.93359375 174.23046875 C0.70067889 178.78833465 -2.79316914 181.03947252 -8.67578125 183.06640625 C-10.99055763 183.99620718 -12.45865285 184.9808425 -14.3125 186.625 C-17.80450177 189.71095505 -20.35293606 190.78973652 -24.9375 191.375 C-29.0242352 190.87458345 -30.8915234 189.70302313 -34 187 C-35.6606384 184.44934624 -36.89194007 181.83058946 -38 179 C-38.36222656 178.13117188 -38.72445312 177.26234375 -39.09765625 176.3671875 C-40.30586754 171.85862417 -40.2523833 167.64427863 -40.1875 163 C-40.18685547 162.1234375 -40.18621094 161.246875 -40.18554688 160.34375 C-40.1546801 155.78918629 -39.92108823 151.48017317 -39 147 C-42.64184368 151.80061213 -43.13650572 157.19935017 -44 163 C-44.66 163 -45.32 163 -46 163 C-46.92371415 152.3772873 -41.5216047 144.85138961 -35 137 C-33.92950905 135.56844084 -32.86657819 134.13118683 -31.8125 132.6875 C-29.7245119 129.89794789 -27.65891387 127.27906903 -25 125 C-24.34 125 -23.68 125 -23 125 C-23.495 124.01 -23.495 124.01 -24 123 C-25.98 124.32 -27.96 125.64 -30 127 C-32.89252188 121.42156495 -34.23450221 117.38472216 -34.0625 111 C-33.91410756 106.26555699 -33.91410756 106.26555699 -34.484375 101.58984375 C-35.21435625 97.92334702 -35.18426571 94.2851633 -35.1875 90.5625 C-35.19974609 89.82451172 -35.21199219 89.08652344 -35.22460938 88.32617188 C-35.23679914 83.75501119 -34.47727132 80.35620558 -33 76 C-32.89031056 73.54402666 -32.87415965 71.0826055 -32.9375 68.625 C-33.04726704 64.01478427 -32.86879255 59.69238875 -32.22973633 55.12548828 C-31.98078043 52.82218323 -31.93596318 50.57423727 -31.9296875 48.2578125 C-31.83921251 35.481009 -29.40482802 25.55758263 -24 14 C-23.34 14 -22.68 14 -22 14 C-21.01 16.64 -20.02 19.28 -19 22 C-17.35 21.67 -15.7 21.34 -14 21 C-14.12375 19.9275 -14.2475 18.855 -14.375 17.75 C-14.25125 16.5125 -14.1275 15.275 -14 14 C-12.04109119 12.60699818 -10.0360882 11.27754554 -8 10 C-6.28432339 6.49705129 -6.28432339 6.49705129 -5 3 C-2.58064516 0 -2.58064516 0 0 0 Z " fill="#100A07" transform="translate(98,1)"/>
<path d="M0 0 C1.02962715 3.36237617 1.07133135 6.37084722 1 9.875 C0.95922395 14.04435144 1.09081143 17.90865143 2 22 C2.66 22 3.32 22 4 22 C4.0928125 20.700625 4.0928125 20.700625 4.1875 19.375 C5.26462828 14.90077483 6.67207418 13.17665646 10 10 C12.5 9.25 12.5 9.25 15 10 C20.40761061 15.40761061 22.28694566 20.08657147 22.3125 27.8125 C22.21490404 33.63165899 21.80053842 37.88177461 19 43 C16.3125 45 16.3125 45 14 46 C14.68707031 46.30292969 15.37414062 46.60585938 16.08203125 46.91796875 C23.43701952 50.33767002 23.43701952 50.33767002 26.125 53.5 C27.06003326 56.17152361 27.2408372 58.19023262 27 61 C22.125 60.125 22.125 60.125 21 59 C21.28875 59.62648437 21.5775 60.25296875 21.875 60.8984375 C22.24625 61.71570312 22.6175 62.53296875 23 63.375 C23.37125 64.18710938 23.7425 64.99921875 24.125 65.8359375 C25 68 25 68 25 70 C25.66 70 26.32 70 27 70 C27 70.66 27 71.32 27 72 C24.1875 72.25 24.1875 72.25 21 72 C17.87596657 68.62015242 16.61864143 64.69095325 15.0625 60.4375 C13.93291274 57.59062082 13.93291274 57.59062082 11 54 C9.515 65.88 9.515 65.88 8 78 C7.67 78 7.34 78 7 78 C7 76.02 7 74.04 7 72 C6.34 72.99 5.68 73.98 5 75 C3.02 72.69 1.04 70.38 -1 68 C-0.34 69.32 0.32 70.64 1 72 C1.74469099 79.07456444 -0.32217756 84.49671693 -3 91 C-3.495 90.01 -3.495 90.01 -4 89 C-5.98 89.495 -5.98 89.495 -8 90 C-8.495 84.06 -8.495 84.06 -9 78 C-10.54242862 80.31364293 -11.7031573 82.38604485 -12.875 84.875 C-14.55075742 88.28951324 -16.48405782 91.1246375 -19 94 C-20.98 90.535 -20.98 90.535 -23 87 C-20.72187359 90.63048034 -20.70093758 93.77164044 -20.6875 98 C-20.66236328 99.8253125 -20.66236328 99.8253125 -20.63671875 101.6875 C-21.01720805 105.15690777 -21.637512 106.50660897 -24 109 C-25.32 108.67 -26.64 108.34 -28 108 C-28.103125 107.360625 -28.20625 106.72125 -28.3125 106.0625 C-28.539375 105.381875 -28.76625 104.70125 -29 104 C-29.99 103.67 -30.98 103.34 -32 103 C-32 102.01 -32 101.02 -32 100 C-29.98177083 100.09765625 -27.96354167 100.1953125 -25.9453125 100.29296875 C-24.98238281 100.14794922 -24.98238281 100.14794922 -24 100 C-23.34 99.01 -22.68 98.02 -22 97 C-22.66 97 -23.32 97 -24 97 C-24 97.66 -24 98.32 -24 99 C-27.3 98.67 -30.6 98.34 -34 98 C-35.0585202 91.7811938 -36.15757289 85.23492268 -33.9921875 79.18359375 C-32.84090259 75.48951029 -32.83800104 72.48555976 -32.9375 68.625 C-33.04726704 64.01478427 -32.86879255 59.69238875 -32.22973633 55.12548828 C-31.98078043 52.82218323 -31.93596318 50.57423727 -31.9296875 48.2578125 C-31.83921251 35.481009 -29.40482802 25.55758263 -24 14 C-23.34 14 -22.68 14 -22 14 C-21.01 16.64 -20.02 19.28 -19 22 C-17.35 21.67 -15.7 21.34 -14 21 C-14.12375 19.9275 -14.2475 18.855 -14.375 17.75 C-14.25125 16.5125 -14.1275 15.275 -14 14 C-12.04109119 12.60699818 -10.0360882 11.27754554 -8 10 C-6.28432339 6.49705129 -6.28432339 6.49705129 -5 3 C-2.58064516 0 -2.58064516 0 0 0 Z " fill="#23120B" transform="translate(98,1)"/>
<path d="M0 0 C0 5.61 0 11.22 0 17 C-6 16 -6 16 -7.875 14.9375 C-11.24989305 13.44857659 -14.42846848 13.38236673 -18 14 C-26.25947062 18.20218681 -30.84535813 26.50554969 -34 35 C-33.54109375 34.24074219 -33.0821875 33.48148438 -32.609375 32.69921875 C-31.99578125 31.70535156 -31.3821875 30.71148437 -30.75 29.6875 C-30.14671875 28.70136719 -29.5434375 27.71523437 -28.921875 26.69921875 C-27.1084027 24.1522485 -25.6569118 22.60841975 -23 21 C-22.34 21 -21.68 21 -21 21 C-20.05125 20.154375 -19.1025 19.30875 -18.125 18.4375 C-17.09375 17.633125 -16.0625 16.82875 -15 16 C-12.8046875 16.34765625 -12.8046875 16.34765625 -11 17 C-11.4846875 17.33128906 -11.969375 17.66257812 -12.46875 18.00390625 C-24.50571617 27.23996298 -30.35056978 45.03115317 -35 59 C-35 59.66 -35 60.32 -35 61 C-34.68289062 60.40574219 -34.36578125 59.81148437 -34.0390625 59.19921875 C-28.3502255 49.09446132 -20.46603367 38.1186545 -8.984375 34.3359375 C-7.32472832 33.88391991 -5.66258338 33.44109355 -4 33 C-3.505 32.01 -3.505 32.01 -3 31 C-3.66 30.67 -4.32 30.34 -5 30 C-4.38511719 29.73445313 -3.77023438 29.46890625 -3.13671875 29.1953125 C-2.32847656 28.84210938 -1.52023438 28.48890625 -0.6875 28.125 C0.11300781 27.77695313 0.91351563 27.42890625 1.73828125 27.0703125 C4.1961834 25.97428106 4.1961834 25.97428106 7 24 C6.25637134 33.2953582 4.17562975 43.1478303 -1 51 C-3.97 50.67 -6.94 50.34 -10 50 C-10 52.31 -10 54.62 -10 57 C-10.94875 57.144375 -11.8975 57.28875 -12.875 57.4375 C-19.53699345 59.33515874 -24.49152476 65.29236415 -29.06640625 70.23046875 C-33.29932111 74.78833465 -36.79316914 77.03947252 -42.67578125 79.06640625 C-44.99055763 79.99620718 -46.45865285 80.9808425 -48.3125 82.625 C-51.80450177 85.71095505 -54.35293606 86.78973652 -58.9375 87.375 C-63.0242352 86.87458345 -64.8915234 85.70302313 -68 83 C-69.6606384 80.44934624 -70.89194007 77.83058946 -72 75 C-72.36222656 74.13117188 -72.72445312 73.26234375 -73.09765625 72.3671875 C-74.30586754 67.85862417 -74.2523833 63.64427863 -74.1875 59 C-74.18685547 58.1234375 -74.18621094 57.246875 -74.18554688 56.34375 C-74.1546801 51.78918629 -73.92108823 47.48017317 -73 43 C-76.64184368 47.80061213 -77.13650572 53.19935017 -78 59 C-78.66 59 -79.32 59 -80 59 C-80.83034732 49.45100582 -76.64093665 42.22088983 -70.66796875 35.05078125 C-69.19268563 33.23690856 -68.00104895 31.44346997 -66.8125 29.4375 C-66.214375 28.633125 -65.61625 27.82875 -65 27 C-63.68 27 -62.36 27 -61 27 C-61.28875 27.99257812 -61.5775 28.98515625 -61.875 30.0078125 C-64.98296716 41.18541911 -66.13359723 51.44735156 -64 63 C-65.98046875 61.52734375 -65.98046875 61.52734375 -68 59 C-68.31992407 56.04437116 -68.42534397 53.49895095 -68.3125 50.5625 C-68.30283203 49.81162109 -68.29316406 49.06074219 -68.28320312 48.28710938 C-68.20487036 44.41474605 -67.92424762 40.77964679 -67 37 C-69.7471506 47.20370222 -71.09096517 59.32088103 -66 69 C-64.65857065 70.75859633 -64.65857065 70.75859633 -63 72 C-60 72.25 -60 72.25 -57 72 C-56.01 72 -55.02 72 -54 72 C-55.28965176 73.37562854 -56.62689293 74.70766393 -58 76 C-58.66 76 -59.32 76 -60 76 C-60 76.99 -60 77.98 -60 79 C-55.14036174 76.18943998 -52.52304369 73.36918873 -49.875 68.375 C-49.53662109 67.76124512 -49.19824219 67.14749023 -48.84960938 66.51513672 C-46.1424533 61.50898442 -43.88210046 56.37389211 -42 51 C-42.36351562 51.71285156 -42.72703125 52.42570312 -43.1015625 53.16015625 C-46.77615606 60.16072808 -50.31975928 66.54650619 -57 71 C-60.5 70.9375 -60.5 70.9375 -64 70 C-65.9375 67.4375 -65.9375 67.4375 -67 65 C-65.07942708 65.13020833 -63.15885417 65.26041667 -61.23828125 65.390625 C-56.95583297 64.64325183 -54.58140601 61.81936544 -52.1484375 58.390625 C-47.25684129 49.72797444 -43.06953537 40.83774069 -39.12060547 31.70410156 C-34.32708987 20.85402272 -28.16691483 10.6069776 -17.5625 4.625 C-14.43970077 3.86334165 -11.35312423 3.63928118 -8.15625 3.3515625 C-5.21669524 2.87228727 -2.6668989 0 0 0 Z " fill="#1C0E08" transform="translate(132,105)"/>
<path d="M0 0 C1.02962715 3.36237617 1.07133135 6.37084722 1 9.875 C0.95922395 14.04435144 1.09081143 17.90865143 2 22 C2.66 22 3.32 22 4 22 C4.0928125 20.700625 4.0928125 20.700625 4.1875 19.375 C5.26462828 14.90077483 6.67207418 13.17665646 10 10 C12.5 9.25 12.5 9.25 15 10 C20.40761061 15.40761061 22.28694566 20.08657147 22.3125 27.8125 C22.21490404 33.63165899 21.80053842 37.88177461 19 43 C16.3125 45 16.3125 45 14 46 C14.68707031 46.30292969 15.37414062 46.60585938 16.08203125 46.91796875 C23.43701952 50.33767002 23.43701952 50.33767002 26.125 53.5 C27.06003326 56.17152361 27.2408372 58.19023262 27 61 C22.125 60.125 22.125 60.125 21 59 C21.28875 59.62648437 21.5775 60.25296875 21.875 60.8984375 C22.24625 61.71570312 22.6175 62.53296875 23 63.375 C23.37125 64.18710938 23.7425 64.99921875 24.125 65.8359375 C25 68 25 68 25 70 C25.66 70 26.32 70 27 70 C27 70.66 27 71.32 27 72 C24.1875 72.25 24.1875 72.25 21 72 C17.87596657 68.62015242 16.61864143 64.69095325 15.0625 60.4375 C13.93291274 57.59062082 13.93291274 57.59062082 11 54 C10.34 57.3 9.68 60.6 9 64 C7.515 64.495 7.515 64.495 6 65 C5.01 64.01 4.02 63.02 3 62 C2.01 62.495 2.01 62.495 1 63 C0.34 59.04 -0.32 55.08 -1 51 C-2.65 52.65 -4.3 54.3 -6 56 C-5.855625 55.05125 -5.71125 54.1025 -5.5625 53.125 C-5.5045854 47.47253481 -9.50532109 43.12719998 -13 39 C-13.66 38.67 -14.32 38.34 -15 38 C-15.72693904 36.02111039 -16.39816251 34.02045442 -17 32 C-17.99 32 -18.98 32 -20 32 C-20.33 29.03 -20.66 26.06 -21 23 C-18 21 -18 21 -14 21 C-14.12375 19.9275 -14.2475 18.855 -14.375 17.75 C-14.25125 16.5125 -14.1275 15.275 -14 14 C-12.04109119 12.60699818 -10.0360882 11.27754554 -8 10 C-6.28432339 6.49705129 -6.28432339 6.49705129 -5 3 C-2.58064516 0 -2.58064516 0 0 0 Z " fill="#241107" transform="translate(98,1)"/>
<path d="M0 0 C0 5.61 0 11.22 0 17 C-6 16 -6 16 -7.875 14.9375 C-11.24989305 13.44857659 -14.42846848 13.38236673 -18 14 C-26.25947062 18.20218681 -30.84535813 26.50554969 -34 35 C-33.54109375 34.24074219 -33.0821875 33.48148438 -32.609375 32.69921875 C-31.99578125 31.70535156 -31.3821875 30.71148437 -30.75 29.6875 C-30.14671875 28.70136719 -29.5434375 27.71523437 -28.921875 26.69921875 C-27.12159102 24.17077112 -25.58159415 22.673467 -23 21 C-23.29189209 21.58289795 -23.58378418 22.1657959 -23.88452148 22.76635742 C-29.32638437 33.66318463 -34.32187024 44.598886 -38.625 56 C-46.94593216 77.79342915 -46.94593216 77.79342915 -57 83 C-60.8125 83.5 -60.8125 83.5 -64 83 C-64.66 82.01 -65.32 81.02 -66 80 C-64.783125 79.773125 -63.56625 79.54625 -62.3125 79.3125 C-56.08794252 77.70439816 -53.37058083 73.76557569 -50.0625 68.5 C-46.59841557 62.54357431 -43.78320007 56.29674343 -41 50 C-41.43570313 50.78503906 -41.87140625 51.57007813 -42.3203125 52.37890625 C-50.37080868 66.58053912 -50.37080868 66.58053912 -57 71 C-60.5 70.9375 -60.5 70.9375 -64 70 C-65.9375 67.4375 -65.9375 67.4375 -67 65 C-65.07942708 65.13020833 -63.15885417 65.26041667 -61.23828125 65.390625 C-56.95583297 64.64325183 -54.58140601 61.81936544 -52.1484375 58.390625 C-47.25684129 49.72797444 -43.06953537 40.83774069 -39.12060547 31.70410156 C-34.32708987 20.85402272 -28.16691483 10.6069776 -17.5625 4.625 C-14.43970077 3.86334165 -11.35312423 3.63928118 -8.15625 3.3515625 C-5.21669524 2.87228727 -2.6668989 0 0 0 Z " fill="#EE5C04" transform="translate(132,105)"/>
<path d="M0 0 C2 1 2 1 4 4 C4.66 2.68 5.32 1.36 6 0 C9.18559592 3.46260427 9.78379809 6.33964773 10 11 C8.90208983 13.62859445 7.86961979 15.6947076 6.375 18.0625 C6.03082031 18.64837891 5.68664062 19.23425781 5.33203125 19.83789062 C2.89619128 23.88713751 0.09468411 27.43296937 -3 31 C-3.33 29.68 -3.66 28.36 -4 27 C-4.2165625 27.8971875 -4.2165625 27.8971875 -4.4375 28.8125 C-4.8872439 30.56150404 -5.42892341 32.28677023 -6 34 C-3.36 33.34 -0.72 32.68 2 32 C1.0307496 34.08761625 0.07895313 35.90136515 -1.36328125 37.703125 C-3.82500544 41.1577642 -5.47731004 45.01344537 -7.21875 48.8671875 C-9.18271906 52.98975319 -11.24284113 55.41776023 -15 58 C-18.26093639 54.73906361 -17.84996047 50.46026599 -18 46 C-17.5625 42.375 -17.5625 42.375 -17 40 C-17.99 40.495 -17.99 40.495 -19 41 C-20.08590771 47.2192896 -20.6350939 53.82168089 -19 60 C-18.01 60.66 -17.02 61.32 -16 62 C-16.33 62.99 -16.66 63.98 -17 65 C-20 64 -20 64 -21.171875 62.453125 C-22.3685488 58.9082611 -22.28857501 55.44677175 -22.25 51.75 C-22.25773437 51.02425781 -22.26546875 50.29851562 -22.2734375 49.55078125 C-22.25508161 44.40195444 -21.4113421 39.95089848 -20 35 C-19.34 35 -18.68 35 -18 35 C-18 34.34 -18 33.68 -18 33 C-16.35 33 -14.7 33 -13 33 C-13 30.69 -13 28.38 -13 26 C-12.34 26.99 -11.68 27.98 -11 29 C-11.16048828 28.00419922 -11.16048828 28.00419922 -11.32421875 26.98828125 C-12.31560892 19.68610635 -12.31560892 19.68610635 -10.5625 15.875 C-10.046875 15.25625 -9.53125 14.6375 -9 14 C-8.34 14.33 -7.68 14.66 -7 15 C-6.01 12.03 -5.02 9.06 -4 6 C-3.34 6.33 -2.68 6.66 -2 7 C-1.34 4.69 -0.68 2.38 0 0 Z " fill="#E45B0A" transform="translate(90,103)"/>
<path d="M0 0 C5.5952381 0.5952381 5.5952381 0.5952381 8 3 C8.34375 5.6796875 8.34375 5.6796875 8.5 8.875 C8.69805189 12.90535593 9.1937064 15.44430393 11 19 C11.68791442 24.2953412 11.69933849 28.67366838 9.1875 33.4375 C8.465625 34.283125 7.74375 35.12875 7 36 C6.443125 36.78375 5.88625 37.5675 5.3125 38.375 C4.879375 38.91125 4.44625 39.4475 4 40 C3.67 40 3.34 40 3 40 C3.33 40.66 3.66 41.32 4 42 C4.14911411 44.28832811 4.22139705 46.58199707 4.25 48.875 C4.28867188 50.72738281 4.28867188 50.72738281 4.328125 52.6171875 C3.98550073 56.14948054 3.40930359 57.4765715 1 60 C-0.32 59.67 -1.64 59.34 -3 59 C-3.103125 58.360625 -3.20625 57.72125 -3.3125 57.0625 C-3.6528125 56.0415625 -3.6528125 56.0415625 -4 55 C-4.99 54.67 -5.98 54.34 -7 54 C-7 53.01 -7 52.02 -7 51 C-4.98177083 51.09765625 -2.96354167 51.1953125 -0.9453125 51.29296875 C-0.30335937 51.19628906 0.33859375 51.09960938 1 51 C1.66 50.01 2.32 49.02 3 48 C2.34 48 1.68 48 1 48 C1 48.66 1 49.32 1 50 C-1.31 49.67 -3.62 49.34 -6 49 C-6.37137331 41.44874275 -6.37137331 41.44874275 -4.5 39.1875 C-3.7575 38.5996875 -3.7575 38.5996875 -3 38 C-3 37.01 -3 36.02 -3 35 C-4.65 35.66 -6.3 36.32 -8 37 C-7.10756972 30.37051793 -7.10756972 30.37051793 -6.4375 28.0625 C-5.625218 24.23317056 -5.41918408 19.90667846 -6.56640625 16.140625 C-7.16904242 13.16544821 -6.61177404 10.72254185 -6.0625 7.75 C-5.77052734 6.13351563 -5.77052734 6.13351563 -5.47265625 4.484375 C-5.31667969 3.66453125 -5.16070312 2.8446875 -5 2 C-4.360625 1.855625 -3.72125 1.71125 -3.0625 1.5625 C-1.02454854 1.18992819 -1.02454854 1.18992819 0 0 Z " fill="#F1EAE4" transform="translate(73,50)"/>
<path d="M0 0 C4.94882698 4.94882698 4.45611921 12.99001703 4.5625 19.5625 C4.63694336 20.94211914 4.63694336 20.94211914 4.71289062 22.34960938 C4.76924432 26.08237055 4.79647903 28.85940497 2.61499023 31.98339844 C-0.22681827 34.64854869 -2.20966026 35.88638243 -6.09765625 36.4453125 C-7.07605469 36.33960938 -8.05445313 36.23390625 -9.0625 36.125 C-12.91606621 35.73002212 -14.61759363 35.8030319 -18.109375 37.6015625 C-21.29161868 40.24196469 -23.0811864 42.70163936 -25.1875 46.25 C-25.52845703 46.82194092 -25.86941406 47.39388184 -26.22070312 47.9831543 C-28.68162249 52.20348821 -30.5408603 56.3489922 -32 61 C-31.3709375 60.32453125 -30.741875 59.6490625 -30.09375 58.953125 C-18.96453901 47.35460993 -18.96453901 47.35460993 -10.5 46.75 C-9.675 46.8325 -8.85 46.915 -8 47 C-8.66 48.65 -9.32 50.3 -10 52 C-10.66 51.67 -11.32 51.34 -12 51 C-24.72976189 54.18244047 -32.23330743 65.11789404 -38.69140625 75.796875 C-39.12324219 76.52390625 -39.55507812 77.2509375 -40 78 C-41.23884077 74.28347768 -40.6083199 73.38751409 -39.12109375 69.84375 C-38.69376953 68.82023437 -38.26644531 67.79671875 -37.82617188 66.7421875 C-37.36791016 65.67226562 -36.90964844 64.60234375 -36.4375 63.5 C-35.79071289 61.94152344 -35.79071289 61.94152344 -35.13085938 60.3515625 C-30.60821986 49.63618025 -26.51786174 40.07800378 -17 33 C-20.14215467 33.60213096 -22.10334521 34.61293869 -24.625 36.5625 C-27.78753541 39 -27.78753541 39 -30 39 C-34.55290898 44.47246202 -38.02026876 50.56378052 -41 57 C-42 54 -42 54 -40.5234375 50.63671875 C-39.81780122 49.31464927 -39.10115954 47.99840907 -38.375 46.6875 C-38.03082031 46.03587891 -37.68664062 45.38425781 -37.33203125 44.71289062 C-33.80219277 38.20678612 -29.75482746 32.44363753 -23 29 C-16.06520779 28.07536104 -11.32871752 30.18723666 -5 33 C-5.33 27.72 -5.66 22.44 -6 17 C-7.65 17.66 -9.3 18.32 -11 19 C-10.875 17.3125 -10.875 17.3125 -10 15 C-8.6078125 13.948125 -8.6078125 13.948125 -7.1875 12.875 C-2.91357318 9.61033782 -1.63671699 4.95828971 0 0 Z " fill="#100805" transform="translate(137,89)"/>
<path d="M0 0 C0.928125 0.680625 1.85625 1.36125 2.8125 2.0625 C3.8025 2.7225 4.7925 3.3825 5.8125 4.0625 C6.8025 2.7425 7.7925 1.4225 8.8125 0.0625 C10.375 2.875 10.375 2.875 11.8125 6.0625 C11.4825 7.0525 11.1525 8.0425 10.8125 9.0625 C10.8125 8.4025 10.8125 7.7425 10.8125 7.0625 C9.8225 6.7325 8.8325 6.4025 7.8125 6.0625 C8.121875 6.784375 8.43125 7.50625 8.75 8.25 C9.73810539 10.86557309 10.3412754 13.31368982 10.8125 16.0625 C9.8225 15.7325 8.8325 15.4025 7.8125 15.0625 C7.85375 16.279375 7.895 17.49625 7.9375 18.75 C7.95004508 22.28144127 7.41248217 24.86253566 5.8125 28.0625 C6.4725 28.0625 7.1325 28.0625 7.8125 28.0625 C8.1425 26.4125 8.4725 24.7625 8.8125 23.0625 C9.1425 23.0625 9.4725 23.0625 9.8125 23.0625 C9.95535714 31.63392857 9.95535714 31.63392857 8.8125 35.0625 C10.2975 34.5675 10.2975 34.5675 11.8125 34.0625 C12.1425 33.0725 12.4725 32.0825 12.8125 31.0625 C12.1525 31.0625 11.4925 31.0625 10.8125 31.0625 C11.1425 28.7525 11.4725 26.4425 11.8125 24.0625 C13.8125 26.0625 13.8125 26.0625 14.0078125 29.3203125 C13.98460938 30.59648438 13.96140625 31.87265625 13.9375 33.1875 C13.91945313 34.46882813 13.90140625 35.75015625 13.8828125 37.0703125 C13.85960938 38.05773438 13.83640625 39.04515625 13.8125 40.0625 C12.3275 40.5575 12.3275 40.5575 10.8125 41.0625 C9.8225 40.0725 8.8325 39.0825 7.8125 38.0625 C6.8225 38.5575 6.8225 38.5575 5.8125 39.0625 C5.1525 35.1025 4.4925 31.1425 3.8125 27.0625 C2.1625 28.7125 0.5125 30.3625 -1.1875 32.0625 C-1.043125 31.11375 -0.89875 30.165 -0.75 29.1875 C-0.6920854 23.53503481 -4.69282109 19.18969998 -8.1875 15.0625 C-8.8475 14.7325 -9.5075 14.4025 -10.1875 14.0625 C-10.91443904 12.08361039 -11.58566251 10.08295442 -12.1875 8.0625 C-13.1775 8.0625 -14.1675 8.0625 -15.1875 8.0625 C-15.5175 5.0925 -15.8475 2.1225 -16.1875 -0.9375 C-9.76454277 -3.12130546 -5.89500744 -3.58323982 0 0 Z " fill="#120803" transform="translate(93.1875,24.9375)"/>
<path d="M0 0 C3.36591866 1.44253657 5.51047079 3.33264727 8 6 C8.66 5.67 9.32 5.34 10 5 C10.66 7.64 11.32 10.28 12 13 C14.3015411 13.77802187 14.3015411 13.77802187 17 14 C17.639375 13.505 18.27875 13.01 18.9375 12.5 C21 11 21 11 24.1875 11.1875 C25.115625 11.455625 26.04375 11.72375 27 12 C27.33 12.66 27.66 13.32 28 14 C27.071875 14.226875 26.14375 14.45375 25.1875 14.6875 C21.49280817 16.2088437 20.67517239 17.46352496 19 21 C19.53625 20.505 20.0725 20.01 20.625 19.5 C23.72140596 17.54437518 25.39853135 17.39975523 29 18 C31.375 20.5 31.375 20.5 33 23 C32.67 23.66 32.34 24.32 32 25 C30.02 25 28.04 25 26 25 C26.680625 25.763125 27.36125 26.52625 28.0625 27.3125 C28.701875 28.199375 29.34125 29.08625 30 30 C29.67 30.99 29.34 31.98 29 33 C28.34 32.01 27.68 31.02 27 30 C24.43717258 29.27034634 24.43717258 29.27034634 22 29 C22 29.66 22 30.32 22 31 C22.61875 31.226875 23.2375 31.45375 23.875 31.6875 C26.61410209 33.37929835 27.05024472 34.99244161 28 38 C27.30261719 37.66097656 26.60523437 37.32195312 25.88671875 36.97265625 C22.52966589 35.84152477 20.31109636 36.01593 16.8125 36.4375 C11.19180819 37.0959041 11.19180819 37.0959041 9 36 C8.67 36.66 8.34 37.32 8 38 C4.07260562 33.09075703 3.56822107 30.26079448 4 24 C4.66 23.67 5.32 23.34 6 23 C5.67 20.36 5.34 17.72 5 15 C4.34 15 3.68 15 3 15 C3.03480469 14.33613281 3.06960937 13.67226562 3.10546875 12.98828125 C3.32707069 6.02058166 3.32707069 6.02058166 0 0 Z " fill="#080504" transform="translate(95,68)"/>
<path d="M0 0 C3.76644485 3.1967305 4.92945192 6.03375686 6.25 10.75 C6.58515625 11.92046875 6.9203125 13.0909375 7.265625 14.296875 C7.62914063 15.63492188 7.62914063 15.63492188 8 17 C9.65 16.34 11.3 15.68 13 15 C13.66 16.32 14.32 17.64 15 19 C12.525 20.485 12.525 20.485 10 22 C10.68707031 22.30292969 11.37414062 22.60585938 12.08203125 22.91796875 C19.43701952 26.33767002 19.43701952 26.33767002 22.125 29.5 C23.06003326 32.17152361 23.2408372 34.19023262 23 37 C18.125 36.125 18.125 36.125 17 35 C17.28875 35.62648437 17.5775 36.25296875 17.875 36.8984375 C18.24625 37.71570312 18.6175 38.53296875 19 39.375 C19.37125 40.18710938 19.7425 40.99921875 20.125 41.8359375 C21 44 21 44 21 46 C21.66 46 22.32 46 23 46 C23 46.66 23 47.32 23 48 C20.1875 48.25 20.1875 48.25 17 48 C13.87596657 44.62015242 12.61864143 40.69095325 11.0625 36.4375 C9.98450415 33.9644507 8.69855711 32.08459281 7 30 C6.67 32.64 6.34 35.28 6 38 C5.67 38 5.34 38 5 38 C4.67 34.04 4.34 30.08 4 26 C3.01 28.475 3.01 28.475 2 31 C2.66 31 3.32 31 4 31 C4 33.64 4 36.28 4 39 C3.34 37.68 2.68 36.36 2 35 C1.34 35 0.68 35 0 35 C0 31.7 0 28.4 0 25 C-0.33 25.99 -0.66 26.98 -1 28 C-1.66 28 -2.32 28 -3 28 C-2.34 23.71 -1.68 19.42 -1 15 C-0.34 15 0.32 15 1 15 C0.505 13.63875 0.505 13.63875 0 12.25 C-1 9 -1 9 -1 5 C-0.67 5.66 -0.34 6.32 0 7 C0.66 6.67 1.32 6.34 2 6 C1.34 5.01 0.68 4.02 0 3 C0 2.01 0 1.02 0 0 Z " fill="#261209" transform="translate(102,25)"/>
<path d="M0 0 C1.32 0 2.64 0 4 0 C3.71125 0.99257812 3.4225 1.98515625 3.125 3.0078125 C0.01703284 14.18541911 -1.13359723 24.44735156 1 36 C-0.98046875 34.52734375 -0.98046875 34.52734375 -3 32 C-3.31992407 29.04437116 -3.42534397 26.49895095 -3.3125 23.5625 C-3.30283203 22.81162109 -3.29316406 22.06074219 -3.28320312 21.28710938 C-3.20487036 17.41474605 -2.92424762 13.77964679 -2 10 C-4.7471506 20.20370222 -6.09096517 32.32088103 -1 42 C0.34142935 43.75859633 0.34142935 43.75859633 2 45 C5 45.25 5 45.25 8 45 C8.99 45 9.98 45 11 45 C6.34890343 49.90250719 2.89040962 50.62673979 -3.8046875 50.95703125 C-4.52914062 50.97121094 -5.25359375 50.98539063 -6 51 C-8.62736962 44.46426947 -9.41988271 38.82547082 -9.25 31.8125 C-9.24484375 30.94947266 -9.2396875 30.08644531 -9.234375 29.19726562 C-9.17930431 24.69867897 -8.89805512 20.42509416 -8 16 C-11.64184368 20.80061213 -12.13650572 26.19935017 -13 32 C-13.66 32 -14.32 32 -15 32 C-15.83034732 22.45100582 -11.64093665 15.22088983 -5.66796875 8.05078125 C-4.19268563 6.23690856 -3.00104895 4.44346997 -1.8125 2.4375 C-1.214375 1.633125 -0.61625 0.82875 0 0 Z " fill="#16100D" transform="translate(67,132)"/>
<path d="M0 0 C0.66 0 1.32 0 2 0 C2.66 2.97 3.32 5.94 4 9 C3.01 9 2.02 9 1 9 C1.28317926 10.60568666 1.57687791 12.20952047 1.875 13.8125 C2.03742188 14.70582031 2.19984375 15.59914063 2.3671875 16.51953125 C2.91188449 19.22727846 2.91188449 19.22727846 5 22 C5.99 21.67 6.98 21.34 8 21 C9.97335227 20.72522943 11.95407372 20.50128099 13.9375 20.3125 C14.97777344 20.20550781 16.01804687 20.09851563 17.08984375 19.98828125 C20.1214089 20.00048889 21.42569407 20.52496196 24 22 C26.66709069 22.16750414 26.66709069 22.16750414 29 22 C28.67 23.32 28.34 24.64 28 26 C26.80503906 26.14695312 26.80503906 26.14695312 25.5859375 26.296875 C14.945024 27.79851243 9.47593481 31.54835627 3 40 C1.52880727 42.29091889 0.25959454 44.58157848 -1 47 C-2.32 46.34 -3.64 45.68 -5 45 C-4.43711524 41.26925214 -3.4140606 38.7804178 -1.375 35.625 C0.53015616 32.31980113 1.00333672 31.20020349 0.9375 27.25 C0.10243863 24.09098367 0.10243863 24.09098367 -1.0625 21.5625 C-2.38654146 17.94345335 -2.13023559 14.84195003 -2 11 C-2.66 10.67 -3.32 10.34 -4 10 C-3.52449439 8.51965236 -3.04448784 7.04074979 -2.5625 5.5625 C-2.29566406 4.73878906 -2.02882813 3.91507812 -1.75390625 3.06640625 C-1 1 -1 1 0 0 Z " fill="#080402" transform="translate(98,83)"/>
<path d="M0 0 C0.625 1.875 0.625 1.875 1 4 C0.34 4.66 -0.32 5.32 -1 6 C-1.33 6 -1.66 6 -2 6 C-2.09796875 6.6290625 -2.1959375 7.258125 -2.296875 7.90625 C-3.35137979 13.94238089 -5.02467136 18.64440845 -8 24 C-9.7325 23.690625 -9.7325 23.690625 -11.5 23.375 C-16.61780773 22.76013971 -21.40178606 23.13814623 -25.6953125 26.21484375 C-27.13910489 27.46637233 -28.57011671 28.73260345 -30 30 C-31.051875 30.2475 -31.051875 30.2475 -32.125 30.5 C-35.11662586 31.2977669 -36.25580176 33.57058102 -38 36 C-38.66 35.67 -39.32 35.34 -40 35 C-32.41243896 22.68137148 -24.26807753 12.78540832 -10 9 C-9.67 8.34 -9.34 7.68 -9 7 C-9.66 6.67 -10.32 6.34 -11 6 C-10.37351562 5.73445312 -9.74703125 5.46890625 -9.1015625 5.1953125 C-8.28429687 4.84210938 -7.46703125 4.48890625 -6.625 4.125 C-5.81289062 3.77695313 -5.00078125 3.42890625 -4.1640625 3.0703125 C-1.86197701 2.07553933 -1.86197701 2.07553933 0 0 Z " fill="#ED5C06" transform="translate(138,129)"/>
<path d="M0 0 C0.46106127 5.76326586 -0.46713466 8.45774456 -4 13 C-4.8353125 14.175625 -4.8353125 14.175625 -5.6875 15.375 C-6.120625 15.91125 -6.55375 16.4475 -7 17 C-7.33 17 -7.66 17 -8 17 C-7.67 17.66 -7.34 18.32 -7 19 C-6.85088589 21.28832811 -6.77860295 23.58199707 -6.75 25.875 C-6.71132812 27.72738281 -6.71132812 27.72738281 -6.671875 29.6171875 C-7.01449927 33.14948054 -7.59069641 34.4765715 -10 37 C-11.32 36.67 -12.64 36.34 -14 36 C-14.103125 35.360625 -14.20625 34.72125 -14.3125 34.0625 C-14.6528125 33.0415625 -14.6528125 33.0415625 -15 32 C-15.99 31.67 -16.98 31.34 -18 31 C-18 30.01 -18 29.02 -18 28 C-15.98177083 28.09765625 -13.96354167 28.1953125 -11.9453125 28.29296875 C-11.30335937 28.19628906 -10.66140625 28.09960938 -10 28 C-9.34 27.01 -8.68 26.02 -8 25 C-8.66 25 -9.32 25 -10 25 C-10 25.66 -10 26.32 -10 27 C-12.31 26.67 -14.62 26.34 -17 26 C-17.37137331 18.44874275 -17.37137331 18.44874275 -15.5 16.1875 C-15.005 15.795625 -14.51 15.40375 -14 15 C-14 14.01 -14 13.02 -14 12 C-15.65 12.66 -17.3 13.32 -19 14 C-18.25 7.25 -18.25 7.25 -16 5 C-15.34 5.33 -14.68 5.66 -14 6 C-13.67 5.01 -13.34 4.02 -13 3 C-11.948125 3.061875 -10.89625 3.12375 -9.8125 3.1875 C-6.02379316 3.00117016 -3.18087164 0 0 0 Z " fill="#FAF6F3" transform="translate(84,73)"/>
<path d="M0 0 C0 3.97351382 -1.53395599 4.93375481 -4 8 C-5.50751556 10.94420825 -6.91639669 13.89890697 -8.26757812 16.91601562 C-10.21069092 21.02901181 -12.25824773 23.42634192 -16 26 C-19.26093639 22.73906361 -18.84996047 18.46026599 -19 14 C-18.5625 10.375 -18.5625 10.375 -18 8 C-18.99 8.495 -18.99 8.495 -20 9 C-21.08590771 15.2192896 -21.6350939 21.82168089 -20 28 C-19.01 28.66 -18.02 29.32 -17 30 C-17.33 30.99 -17.66 31.98 -18 33 C-21 32 -21 32 -22.171875 30.453125 C-23.3685488 26.9082611 -23.28857501 23.44677175 -23.25 19.75 C-23.25773437 19.02425781 -23.26546875 18.29851562 -23.2734375 17.55078125 C-23.25508161 12.40195444 -22.4113421 7.95089848 -21 3 C-20.34 3 -19.68 3 -19 3 C-19 2.34 -19 1.68 -19 1 C-17.06833984 1.01740234 -17.06833984 1.01740234 -15.09765625 1.03515625 C-13.41927228 1.0445327 -11.74088674 1.05363305 -10.0625 1.0625 C-9.21236328 1.07087891 -8.36222656 1.07925781 -7.48632812 1.08789062 C-6.67744141 1.09111328 -5.86855469 1.09433594 -5.03515625 1.09765625 C-4.2862915 1.10289307 -3.53742676 1.10812988 -2.76586914 1.11352539 C-0.97332261 1.19341752 -0.97332261 1.19341752 0 0 Z " fill="#462717" transform="translate(91,135)"/>
<path d="M0 0 C2.85844182 2.85844182 2.70789309 5.77691961 3.2421875 9.6875 C3.78633972 12.1389184 3.78633972 12.1389184 5.91796875 13.31640625 C8.77293627 14.25377832 10.172916 14.03429902 13 13 C14.68662458 11.35353315 16.35511706 9.68816933 18 8 C18.99 8 19.98 8 21 8 C21 8.66 21 9.32 21 10 C22.32 10.33 23.64 10.66 25 11 C23.68 11.33 22.36 11.66 21 12 C22.0209375 13.1446875 22.0209375 13.1446875 23.0625 14.3125 C23.701875 15.199375 24.34125 16.08625 25 17 C24.67 17.99 24.34 18.98 24 20 C23.34 19.01 22.68 18.02 22 17 C19.43717258 16.27034634 19.43717258 16.27034634 17 16 C17 16.66 17 17.32 17 18 C17.61875 18.226875 18.2375 18.45375 18.875 18.6875 C21.61410209 20.37929835 22.05024472 21.99244161 23 25 C21.95392578 24.49146484 21.95392578 24.49146484 20.88671875 23.97265625 C17.52966589 22.84152477 15.31109636 23.01593 11.8125 23.4375 C6.19180819 24.0959041 6.19180819 24.0959041 4 23 C3.67 23.66 3.34 24.32 3 25 C-0.92739438 20.09075703 -1.43177893 17.26079448 -1 11 C-0.34 10.67 0.32 10.34 1 10 C0.67 6.7 0.34 3.4 0 0 Z " fill="#49220D" transform="translate(100,81)"/>
<path d="M0 0 C1.03308311 3.35551802 1.04073207 6.31607478 0.9375 9.8125 C0.88919672 13.42646388 0.9247994 16.45786835 2.125 19.875 C3.18013126 23.64332594 2.54793433 25.47414958 1 29 C0.41992188 28.59007813 -0.16015625 28.18015625 -0.7578125 27.7578125 C-5.06084535 24.78971393 -8.8686189 22.31573874 -14 21 C-14.375 17.75 -14.375 17.75 -14 14 C-12.04109119 12.60699818 -10.0360882 11.27754554 -8 10 C-6.28432339 6.49705129 -6.28432339 6.49705129 -5 3 C-2.58064516 0 -2.58064516 0 0 0 Z M-18 21 C-16.68 21.33 -15.36 21.66 -14 22 C-14.99 22.495 -14.99 22.495 -16 23 C-16.66 22.34 -17.32 21.68 -18 21 Z " fill="#1B0F0A" transform="translate(98,1)"/>
<path d="M0 0 C3.91534547 3.91534547 4.12168393 8.98269434 4.1953125 14.27734375 C4.18216394 16.16416226 4.1585275 18.05093358 4.125 19.9375 C4.11597656 20.90751953 4.10695312 21.87753906 4.09765625 22.87695312 C4.07426107 25.25156407 4.04148176 27.62564776 4 30 C2.33333333 30 0.66666667 30 -1 30 C-1 30.66 -1 31.32 -1 32 C-1.99 32 -2.98 32 -4 32 C-5.0541518 28.83754459 -5.31275672 26.13051782 -5.5625 22.8125 C-5.64628906 21.72582031 -5.73007813 20.63914062 -5.81640625 19.51953125 C-5.87699219 18.68808594 -5.93757812 17.85664062 -6 17 C-7.65 17.66 -9.3 18.32 -11 19 C-10.875 17.3125 -10.875 17.3125 -10 15 C-9.071875 14.29875 -8.14375 13.5975 -7.1875 12.875 C-2.91357318 9.61033782 -1.63671699 4.95828971 0 0 Z " fill="#2D1C15" transform="translate(137,89)"/>
<path d="M0 0 C0.59039062 0.21269531 1.18078125 0.42539063 1.7890625 0.64453125 C1.304375 0.97582031 0.8196875 1.30710937 0.3203125 1.6484375 C-11.11314677 10.42141875 -15.59661612 25.51163933 -20.44677734 38.54833984 C-24.16454661 48.30110754 -29.25878442 56.84969295 -36.2109375 64.64453125 C-36.8709375 64.31453125 -37.5309375 63.98453125 -38.2109375 63.64453125 C-37.77088379 63.07202637 -37.33083008 62.49952148 -36.87744141 61.90966797 C-31.95385584 55.23494435 -28.67296203 48.44222303 -25.5859375 40.76953125 C-25.13476562 39.67511719 -24.68359375 38.58070313 -24.21875 37.453125 C-22.87373995 34.18722417 -21.54142926 30.91636947 -20.2109375 27.64453125 C-19.32908672 25.48161562 -18.44380148 23.32009633 -17.5546875 21.16015625 C-17.17248047 20.22719727 -16.79027344 19.29423828 -16.39648438 18.33300781 C-7.76181269 -1.24792395 -7.76181269 -1.24792395 0 0 Z " fill="#E85C07" transform="translate(119.2109375,121.35546875)"/>
<path d="M0 0 C1.32 0.66 2.64 1.32 4 2 C4 3.65 4 5.3 4 7 C4.59167969 7.24234375 5.18335937 7.4846875 5.79296875 7.734375 C9.78780753 10.0252206 12.02551374 13.92121697 14 18 C13.875 21.5625 13.875 21.5625 13 24 C11.68 23.67 10.36 23.34 9 23 C9.99 24.32 10.98 25.64 12 27 C11.67 27.66 11.34 28.32 11 29 C10.25556641 27.96939453 10.25556641 27.96939453 9.49609375 26.91796875 C5.42482208 21.51793289 2.57207936 17.91685648 -4 16 C-3.01 13.03 -2.02 10.06 -1 7 C-0.34 7 0.32 7 1 7 C1.33 6.01 1.66 5.02 2 4 C1.34 4 0.68 4 0 4 C0 2.68 0 1.36 0 0 Z " fill="#78330C" transform="translate(79,32)"/>
<path d="M0 0 C0.33 0 0.66 0 1 0 C1.10662326 5.11791642 0.71167986 9.92928099 0 15 C1.65 12.69 3.3 10.38 5 8 C5.33 8.66 5.66 9.32 6 10 C6.99 10.33 7.98 10.66 9 11 C8.3712982 14.87765622 7.20058454 18.10143484 5.56640625 21.66796875 C5.08236328 22.72564453 4.59832031 23.78332031 4.09960938 24.87304688 C3.59236328 25.96681641 3.08511719 27.06058594 2.5625 28.1875 C2.05912109 29.29287109 1.55574219 30.39824219 1.03710938 31.53710938 C-2.74136373 39.74136373 -2.74136373 39.74136373 -5 42 C-6.485 42.495 -6.485 42.495 -8 43 C-8.66 42.34 -9.32 41.68 -10 41 C-9.41476563 40.32195312 -8.82953125 39.64390625 -8.2265625 38.9453125 C-5.82073762 35.76287047 -4.08001254 32.45854405 -2.375 28.875 C-0.72682233 25.45787303 0.88905091 22.16642363 3 19 C1.02 19 -0.96 19 -3 19 C-2.68926976 16.77058595 -2.37634375 14.54147788 -2.0625 12.3125 C-1.88847656 11.07113281 -1.71445313 9.82976562 -1.53515625 8.55078125 C-1.10177103 5.67525452 -0.60350718 2.84355187 0 0 Z " fill="#211916" transform="translate(87,118)"/>
<path d="M0 0 C0.625 1.875 0.625 1.875 1 4 C0.34 4.66 -0.32 5.32 -1 6 C-1.33 6 -1.66 6 -2 6 C-2.09796875 6.6290625 -2.1959375 7.258125 -2.296875 7.90625 C-3.35137979 13.94238089 -5.02467136 18.64440845 -8 24 C-10.3431213 23.74438677 -12.67843403 23.40729228 -15 23 C-16 21 -16 21 -15.44140625 18.8359375 C-15.00634766 17.61777344 -15.00634766 17.61777344 -14.5625 16.375 C-14.27503906 15.55773437 -13.98757812 14.74046875 -13.69140625 13.8984375 C-13.46324219 13.27195313 -13.23507813 12.64546875 -13 12 C-12.34 12 -11.68 12 -11 12 C-10.34 10.35 -9.68 8.7 -9 7 C-9.66 6.67 -10.32 6.34 -11 6 C-10.06027344 5.60167969 -10.06027344 5.60167969 -9.1015625 5.1953125 C-8.28429687 4.84210938 -7.46703125 4.48890625 -6.625 4.125 C-5.81289062 3.77695313 -5.00078125 3.42890625 -4.1640625 3.0703125 C-1.86197701 2.07553933 -1.86197701 2.07553933 0 0 Z " fill="#311E16" transform="translate(138,129)"/>
<path d="M0 0 C0 1.32 0 2.64 0 4 C-1.18335937 4.5259375 -2.36671875 5.051875 -3.5859375 5.59375 C-8.12097265 7.86226604 -11.20951204 10.80825933 -14.625 14.5 C-18.48825003 18.61520112 -22.10273 22.13741238 -27 25 C-27.66 25 -28.32 25 -29 25 C-26.01554138 16.54403392 -21.06981017 12.10169817 -14 7 C-13.11957031 6.34 -12.23914063 5.68 -11.33203125 5 C-10.45933594 4.360625 -9.58664063 3.72125 -8.6875 3.0625 C-7.88699219 2.47597656 -7.08648437 1.88945312 -6.26171875 1.28515625 C-4 0 -4 0 0 0 Z " fill="#E95A05" transform="translate(120,155)"/>
<path d="M0 0 C1.18376905 3.55130714 0.65805988 5.34954621 0 9 C-0.52561598 17.05607564 -0.99068453 26.12982577 4.41796875 32.73046875 C6.84229036 34.67591202 8.98786126 34.18825867 12 34 C12.99 34 13.98 34 15 34 C11.65126813 37.26705549 10.04581565 38.81968696 5.375 39.625 C2 39 2 39 -0.375 36.75 C-5.19984936 28.58487031 -4.04163011 15.48672603 -2.328125 6.4609375 C-1.6507891 4.24362092 -0.93693841 2.11926544 0 0 Z " fill="#EC5D07" transform="translate(63,143)"/>
<path d="M0 0 C0.33 4.29 0.66 8.58 1 13 C1.66 12.01 2.32 11.02 3 10 C4.5 11.375 4.5 11.375 6 13 C6 13.66 6 14.32 6 15 C6.99 14.67 7.98 14.34 9 14 C8.67 18.62 8.34 23.24 8 28 C7.67 28 7.34 28 7 28 C7 26.02 7 24.04 7 22 C6.34 22 5.68 22 5 22 C3.7109375 20.46875 3.7109375 20.46875 2.375 18.5 C1.92898437 17.8503125 1.48296875 17.200625 1.0234375 16.53125 C0.68570313 16.0259375 0.34796875 15.520625 0 15 C-0.61875 15.20625 -1.2375 15.4125 -1.875 15.625 C-2.57625 15.74875 -3.2775 15.8725 -4 16 C-6 14 -6 14 -6.4375 10.25 C-6.37550837 6.85285878 -4.38952946 0 0 0 Z " fill="#83350B" transform="translate(98,51)"/>
<path d="M0 0 C0.17835515 4.54805635 -0.00214565 7.8794254 -2 12 C-1.34 12 -0.68 12 0 12 C0.33 10.35 0.66 8.7 1 7 C1.33 7 1.66 7 2 7 C2.14285714 15.57142857 2.14285714 15.57142857 1 19 C1.99 18.67 2.98 18.34 4 18 C4.33 17.01 4.66 16.02 5 15 C4.34 15 3.68 15 3 15 C3.33 12.69 3.66 10.38 4 8 C6 10 6 10 6.1953125 13.2578125 C6.17210938 14.53398438 6.14890625 15.81015625 6.125 17.125 C6.10695313 18.40632813 6.08890625 19.68765625 6.0703125 21.0078125 C6.04710938 21.99523437 6.02390625 22.98265625 6 24 C5.01 24.33 4.02 24.66 3 25 C2.01 24.01 1.02 23.02 0 22 C-0.66 22.33 -1.32 22.66 -2 23 C-2.66 19.04 -3.32 15.08 -4 11 C-5.65 12.65 -7.3 14.3 -9 16 C-8.88061291 9.314323 -7.14780658 6.32143325 -2.59375 1.46875 C-1 0 -1 0 0 0 Z " fill="#0A0402" transform="translate(101,41)"/>
<path d="M0 0 C1.9375 0.375 1.9375 0.375 4 1 C6.10228997 5.20457995 5.41219249 9.63022494 4.10546875 13.97265625 C3.11989661 16.67166123 2.09395975 19.3432406 1 22 C0.67 21.34 0.34 20.68 0 20 C-0.99 20 -1.98 20 -3 20 C-3.08139142 17.60347472 -3.14067009 15.20974564 -3.1875 12.8125 C-3.22520508 11.80219727 -3.22520508 11.80219727 -3.26367188 10.77148438 C-3.32923478 6.29135252 -2.66743649 3.60559001 0 0 Z " fill="#E9E1DB" transform="translate(94,70)"/>
<path d="M0 0 C0.66 0.33 1.32 0.66 2 1 C2.30859375 2.85546875 2.30859375 2.85546875 2.4375 5.1875 C2.70684458 8.37474421 2.95037929 9.91266754 4.5625 12.75 C7.11524193 18.52141654 7.11667577 25.41518446 5.23828125 31.4453125 C3.35269725 35.36553853 0.8658351 38.72475989 -2 42 C-3.1875 39.8125 -3.1875 39.8125 -4 37 C-2.72462236 34.31499444 -1.15676533 32.19740819 0.6875 29.875 C2.72211419 25.41822605 2.55373545 20.82540889 2 16 C1.66613281 15.35675781 1.33226563 14.71351562 0.98828125 14.05078125 C-0.37616301 11.21942459 -0.19285972 8.87154689 -0.125 5.75 C-0.10695313 4.67234375 -0.08890625 3.5946875 -0.0703125 2.484375 C-0.04710938 1.66453125 -0.02390625 0.8446875 0 0 Z " fill="#EB5E0C" transform="translate(81,53)"/>
<path d="M0 0 C3.28006166 3.28006166 2.72476565 7.52584155 3 12 C3.09861328 13.21236328 3.09861328 13.21236328 3.19921875 14.44921875 C3.46385389 19.82404968 2.61758161 22.76226155 -1 27 C-1.99 27.66 -2.98 28.32 -4 29 C-4.66 27.68 -5.32 26.36 -6 25 C-4.68 25 -3.36 25 -2 25 C-2 24.34 -2 23.68 -2 23 C-2.99 22.67 -3.98 22.34 -5 22 C-5.02698189 20.37509046 -5.04638757 18.75005367 -5.0625 17.125 C-5.07410156 16.22007813 -5.08570312 15.31515625 -5.09765625 14.3828125 C-5 12 -5 12 -4 10 C-3.01 10 -2.02 10 -1 10 C-0.67 10.99 -0.34 11.98 0 13 C-0.52268466 10.23723823 -1.10869587 7.6739124 -2 5 C-1.0625 2.3125 -1.0625 2.3125 0 0 Z " fill="#BC561B" transform="translate(74,20)"/>
<path d="M0 0 C0 3.97351382 -1.53395599 4.93375481 -4 8 C-5.50751556 10.94420825 -6.91639669 13.89890697 -8.26757812 16.91601562 C-10.21069092 21.02901181 -12.25824773 23.42634192 -16 26 C-19.29246406 22.70753594 -18.96878781 18.50704043 -19 14 C-18.54458579 10.60509404 -17.85364954 7.31582878 -17 4 C-16.34 4.33 -15.68 4.66 -15 5 C-15.09539062 5.75925781 -15.19078125 6.51851562 -15.2890625 7.30078125 C-15.39992188 8.29464844 -15.51078125 9.28851563 -15.625 10.3125 C-15.79902344 11.79169922 -15.79902344 11.79169922 -15.9765625 13.30078125 C-16.25476995 16.22657416 -16.25476995 16.22657416 -14 19 C-11.5733503 17.03669837 -11.5733503 17.03669837 -11.9375 13.3125 C-11.65795125 10.2430547 -11.21367417 9.21576901 -9.0078125 6.98828125 C-6.71878896 5.24408919 -4.38032559 3.61600086 -2 2 C-1.34 1.34 -0.68 0.68 0 0 Z " fill="#F5F5F4" transform="translate(91,135)"/>
<path d="M0 0 C0.66 0.33 1.32 0.66 2 1 C1.87431641 2.15628906 1.87431641 2.15628906 1.74609375 3.3359375 C1.64425781 4.33882812 1.54242188 5.34171875 1.4375 6.375 C1.33308594 7.37273438 1.22867188 8.37046875 1.12109375 9.3984375 C0.78855292 11.984037 0.78855292 11.984037 2 14 C2.3360613 20.27314429 1.40142766 25.8937795 0 32 C1.65 31.34 3.3 30.68 5 30 C4.505 32.475 4.505 32.475 4 35 C3.34 35 2.68 35 2 35 C1.67 37.97 1.34 40.94 1 44 C-0.485 44.495 -0.485 44.495 -2 45 C-3.0585202 38.7811938 -4.15757289 32.23492268 -1.9921875 26.18359375 C-0.84090259 22.48951029 -0.83800104 19.48555976 -0.9375 15.625 C-1.01650061 10.27929221 -0.86054311 5.27082654 0 0 Z " fill="#272322" transform="translate(66,54)"/>
<path d="M0 0 C3.18853475 3.46579864 3.80863997 6.33081519 4 11 C3.03025115 13.7074938 1.60881473 16.02218195 0.0625 18.4375 C-0.32357422 19.07365234 -0.70964844 19.70980469 -1.10742188 20.36523438 C-2.05467479 21.92060028 -3.02505167 23.46184301 -4 25 C-4.33 25 -4.66 25 -5 25 C-4.67 18.07 -4.34 11.14 -4 4 C-3.34 4 -2.68 4 -2 4 C-1.34 2.68 -0.68 1.36 0 0 Z " fill="#F4630D" transform="translate(96,103)"/>
<path d="M0 0 C1.8125 2.5 1.8125 2.5 3 5 C1.68 5 0.36 5 -1 5 C-0.01 5.99 0.98 6.98 2 8 C0.125 11.875 0.125 11.875 -1 13 C-3.33333333 13 -5.66666667 13 -8 13 C-8.99 13.495 -8.99 13.495 -10 14 C-9.93983797 12.2282281 -9.85100672 10.45741321 -9.75 8.6875 C-9.70359375 7.70136719 -9.6571875 6.71523437 -9.609375 5.69921875 C-9 3 -9 3 -7.11328125 1.17578125 C-4.43787114 -0.31275561 -3.00939012 -0.61731079 0 0 Z " fill="#C6713F" transform="translate(79,64)"/>
<path d="M0 0 C3.97145048 0.90260238 5.70890914 1.65528714 8.375 4.8125 C9.9791273 7.95905739 10.40603114 9.54873532 10 13 C5.125 12.125 5.125 12.125 4 11 C4.28875 11.62648438 4.5775 12.25296875 4.875 12.8984375 C5.24625 13.71570312 5.6175 14.53296875 6 15.375 C6.37125 16.18710938 6.7425 16.99921875 7.125 17.8359375 C8 20 8 20 8 22 C8.66 22 9.32 22 10 22 C10 22.66 10 23.32 10 24 C7.1875 24.25 7.1875 24.25 4 24 C2.0625 22.1875 2.0625 22.1875 1 20 C1.33 19.01 1.66 18.02 2 17 C2.99 17.99 3.98 18.98 5 20 C3.90322765 17.72532419 2.79801578 15.45545476 1.6875 13.1875 C1.37876953 12.54490234 1.07003906 11.90230469 0.75195312 11.24023438 C-0.82136035 8.04392384 -2.22816208 5.29422893 -5 3 C-4.67 2.34 -4.34 1.68 -4 1 C-0.39843896 3.05803488 2.88992126 5.24535883 6 8 C6 8.66 6 9.32 6 10 C6.66 10 7.32 10 8 10 C5.48592381 5.71675909 3.87685861 3.35468295 -1 2 C-0.67 1.34 -0.34 0.68 0 0 Z " fill="#190F0B" transform="translate(115,49)"/>
<path d="M0 0 C0.66 0 1.32 0 2 0 C2.38909985 1.45463481 2.76088029 2.91391207 3.125 4.375 C3.43824219 5.59316406 3.43824219 5.59316406 3.7578125 6.8359375 C3.83773437 7.55007812 3.91765625 8.26421875 4 9 C3.34 9.66 2.68 10.32 2 11 C1.34 9.68 0.68 8.36 0 7 C-0.6878236 9.35367713 -0.6878236 9.35367713 -1 12 C-0.01 13.485 -0.01 13.485 1 15 C1.1953125 17.26171875 1.1953125 17.26171875 1.125 19.6875 C1.10695313 20.49574219 1.08890625 21.30398437 1.0703125 22.13671875 C1.03550781 23.05904297 1.03550781 23.05904297 1 24 C0.67 24 0.34 24 0 24 C-0.33 21.03 -0.66 18.06 -1 15 C-1.99 15 -2.98 15 -4 15 C-4 18.96 -4 22.92 -4 27 C-3.34 27 -2.68 27 -2 27 C-1.34 26.34 -0.68 25.68 0 25 C-0.33 26.65 -0.66 28.3 -1 30 C-1.99 30.33 -2.98 30.66 -4 31 C-7 29 -7 29 -7.5390625 27.03125 C-7.87248953 17.21030847 -3.81487243 8.84622203 0 0 Z " fill="#2A1E19" transform="translate(74,15)"/>
<path d="M0 0 C2.6875 0.4375 2.6875 0.4375 5 3.4375 C5.8353125 4.9225 5.8353125 4.9225 6.6875 6.4375 C6.3575 7.0975 6.0275 7.7575 5.6875 8.4375 C4.03358154 8.82921753 2.36404729 9.15807545 0.6875 9.4375 C-0.3025 9.7675 -1.2925 10.0975 -2.3125 10.4375 C-2.3125 11.4275 -2.3125 12.4175 -2.3125 13.4375 C-2.9725 13.1075 -3.6325 12.7775 -4.3125 12.4375 C-4.3125 11.7775 -4.3125 11.1175 -4.3125 10.4375 C-4.9725 10.4375 -5.6325 10.4375 -6.3125 10.4375 C-6.9725 9.7775 -7.6325 9.1175 -8.3125 8.4375 C-8.1875 5.9375 -8.1875 5.9375 -7.3125 3.4375 C-5.3125 2.1875 -5.3125 2.1875 -3.3125 1.4375 C-2.3125 0.4375 -2.3125 0.4375 0 0 Z " fill="#4C240E" transform="translate(110.3125,13.5625)"/>
<path d="M0 0 C3.23854746 -0.33998986 4.6983904 -0.19051515 7.4921875 1.57421875 C8.27851562 2.27160156 9.06484375 2.96898437 9.875 3.6875 C10.67679688 4.37199219 11.47859375 5.05648438 12.3046875 5.76171875 C14 8 14 8 13.7578125 10.76953125 C13.38269531 11.87361328 13.38269531 11.87361328 13 13 C12.40832031 12.60167969 11.81664063 12.20335937 11.20703125 11.79296875 C7.19013364 9.09974702 3.18432495 6.42960803 -1 4 C-0.67 2.68 -0.34 1.36 0 0 Z " fill="#BD4F0E" transform="translate(86,17)"/>
<path d="M0 0 C0.33 0.99 0.66 1.98 1 3 C2.98 2.34 4.96 1.68 7 1 C2.23262354 5.96601715 -3.03372957 10.41676345 -8.375 14.75 C-11.13662624 16.91163165 -11.13662624 16.91163165 -13 20 C-13.66 19.67 -14.32 19.34 -15 19 C-10.68255723 11.99050468 -5.6303335 5.99317721 0 0 Z " fill="#953B08" transform="translate(113,145)"/>
<path d="M0 0 C0.66 0 1.32 0 2 0 C2.468744 18.07268539 2.468744 18.07268539 0 24 C-2.078125 25.76953125 -2.078125 25.76953125 -4 27 C-2.93170365 17.94221076 -1.78270374 8.95144855 0 0 Z " fill="#F0ECE9" transform="translate(90,107)"/>
<path d="M0 0 C0.66 0 1.32 0 2 0 C1.97679688 0.80824219 1.95359375 1.61648437 1.9296875 2.44921875 C1.91164063 3.51785156 1.89359375 4.58648437 1.875 5.6875 C1.84019531 7.27111328 1.84019531 7.27111328 1.8046875 8.88671875 C2.00464831 12.07409401 2.47656695 14.20031343 4 17 C4.99 17.33 5.98 17.66 7 18 C7 18.66 7 19.32 7 20 C6.34 20 5.68 20 5 20 C5 20.66 5 21.32 5 22 C0.125 21.125 0.125 21.125 -1 20 C-2.00506255 12.99501858 -2.63018606 6.65282356 0 0 Z " fill="#412D23" transform="translate(71,143)"/>
<path d="M0 0 C5.69877546 1.89959182 8.65717031 8.47411073 11.37890625 13.59375 C13.38321995 17.89569161 13.38321995 17.89569161 14 20 C13.67 20.66 13.34 21.32 13 22 C11.5 20.625 11.5 20.625 10 19 C10 18.34 10 17.68 10 17 C9.34 17 8.68 17 8 17 C7.60167969 16.18595703 7.60167969 16.18595703 7.1953125 15.35546875 C6.84210938 14.64003906 6.48890625 13.92460938 6.125 13.1875 C5.60292969 12.12595703 5.60292969 12.12595703 5.0703125 11.04296875 C3.9343514 8.78753582 3.9343514 8.78753582 2 6 C1.67 8.64 1.34 11.28 1 14 C0.67 14 0.34 14 0 14 C0 9.38 0 4.76 0 0 Z " fill="#4E4440" transform="translate(107,49)"/>
<path d="M0 0 C0.66 0.33 1.32 0.66 2 1 C1 4 1 4 -1.1875 6.0625 C-6.81088611 11.49029007 -10.26800313 18.61680084 -12.26171875 26.08984375 C-13.11732869 28.30356472 -14.23241953 29.44667171 -16 31 C-16.33 30.34 -16.66 29.68 -17 29 C-16.0623116 26.4086247 -15.06308688 23.94638964 -13.9375 21.4375 C-13.45639771 20.3542041 -13.45639771 20.3542041 -12.96557617 19.24902344 C-9.69644187 12.06031735 -5.98847279 5.29749516 0 0 Z " fill="#1F1410" transform="translate(118,123)"/>
<path d="M0 0 C1.53725408 3.07450817 0.12902647 5.04682958 -0.9375 8.25 C-3.71800456 17.56948425 -3.77256979 26.43100536 -2 36 C-5.19933602 33.56241065 -5.9474516 32.36474773 -6.53125 28.3125 C-6.54761876 26.87505545 -6.53585587 25.4370905 -6.5 24 C-6.49081543 23.24831543 -6.48163086 22.49663086 -6.47216797 21.72216797 C-6.21909601 13.8534736 -4.39885177 6.59827766 0 0 Z " fill="#DC5A0B" transform="translate(70,132)"/>
<path d="M0 0 C0.33 0.99 0.66 1.98 1 3 C-0.14453125 5.0078125 -0.14453125 5.0078125 -1.8125 7.125 C-2.62654297 8.18074219 -2.62654297 8.18074219 -3.45703125 9.2578125 C-5 11 -5 11 -7 12 C-9.29379749 8.55930376 -10 7.27709699 -10 3 C-3.375 0 -3.375 0 0 0 Z " fill="#471E09" transform="translate(99,38)"/>
<path d="M0 0 C0.66 0 1.32 0 2 0 C4.90108294 3.82942948 5.53680089 7.27536912 6 12 C5.34 11.67 4.68 11.34 4 11 C3.67 11.99 3.34 12.98 3 14 C2.01 14 1.02 14 0 14 C0 13.34 0 12.68 0 12 C0.66 12 1.32 12 2 12 C2 11.34 2 10.68 2 10 C0.8553125 10.556875 0.8553125 10.556875 -0.3125 11.125 C-1.199375 11.41375 -2.08625 11.7025 -3 12 C-3.99 11.34 -4.98 10.68 -6 10 C-4.37660195 8.29115995 -2.70680947 6.62553283 -1 5 C-0.34 5 0.32 5 1 5 C0.67 3.35 0.34 1.7 0 0 Z " fill="#291309" transform="translate(74,121)"/>
<path d="M0 0 C0.66 0 1.32 0 2 0 C2.36923077 5.41538462 2.36923077 5.41538462 0.5 8.375 C0.005 8.91125 -0.49 9.4475 -1 10 C-2.32 9.67 -3.64 9.34 -5 9 C-5.103125 8.360625 -5.20625 7.72125 -5.3125 7.0625 C-5.539375 6.381875 -5.76625 5.70125 -6 5 C-6.99 4.67 -7.98 4.34 -9 4 C-9 3.01 -9 2.02 -9 1 C-7.700625 1.020625 -6.40125 1.04125 -5.0625 1.0625 C-3.70834367 1.08399454 -2.35243917 1.07148199 -1 1 C-0.67 0.67 -0.34 0.34 0 0 Z " fill="#F2F0EF" transform="translate(75,100)"/>
<path d="M0 0 C0.76173392 4.3164922 1.16063604 7.74433453 0 12 C-2.64 11.67 -5.28 11.34 -8 11 C-5.46153846 -0 -5.46153846 -0 0 0 Z " fill="#312E2D" transform="translate(98,1)"/>
<path d="M0 0 C2 2 2 2 2.22705078 3.87939453 C2.21657715 4.62302246 2.20610352 5.36665039 2.1953125 6.1328125 C2.18886719 6.93847656 2.18242187 7.74414062 2.17578125 8.57421875 C2.15902344 9.41597656 2.14226562 10.25773437 2.125 11.125 C2.11597656 11.97449219 2.10695312 12.82398437 2.09765625 13.69921875 C2.07405647 15.79959884 2.03818483 17.89983444 2 20 C1.01 20 0.02 20 -1 20 C-3.22024286 13.33927142 -2.26679704 6.5170415 0 0 Z " fill="#A3430D" transform="translate(134,101)"/>
<path d="M0 0 C2 1.375 2 1.375 4 3 C4 3.66 4 4.32 4 5 C4.99 4.67 5.98 4.34 7 4 C6.67 8.62 6.34 13.24 6 18 C5.67 18 5.34 18 5 18 C5 16.02 5 14.04 5 12 C4.34 12 3.68 12 3 12 C0.38953552 9.15222057 -1.42676569 6.86933162 -2 3 C-1.34 2.67 -0.68 2.34 0 2 C0 1.34 0 0.68 0 0 Z " fill="#81360F" transform="translate(100,61)"/>
<path d="M0 0 C0.66 0.33 1.32 0.66 2 1 C1.90460938 1.74765625 1.80921875 2.4953125 1.7109375 3.265625 C1.60007812 4.25046875 1.48921875 5.2353125 1.375 6.25 C1.20097656 7.71179688 1.20097656 7.71179688 1.0234375 9.203125 C0.99887463 12.13429393 1.4687283 13.54528964 3 16 C3.99 15.67 4.98 15.34 6 15 C5.60196439 17.88575819 5.20990931 18.82189513 2.9375 20.75 C2.298125 21.1625 1.65875 21.575 1 22 C-2.29246406 18.70753594 -1.96878781 14.50704043 -2 10 C-1.54458579 6.60509404 -0.85364954 3.31582878 0 0 Z " fill="#E7E6E6" transform="translate(74,139)"/>
<path d="M0 0 C0.99 0.66 1.98 1.32 3 2 C2.01 2.721875 1.02 3.44375 0 4.1875 C-4.54574774 8.04029839 -7.24293222 12.8968717 -10.203125 17.9765625 C-11.68121846 20.4636154 -13.2095152 22.73426306 -15 25 C-13.7556743 16.20785657 -8.13580282 7.31111147 -2 1 C-1.34 0.67 -0.68 0.34 0 0 Z " fill="#270F05" transform="translate(110,121)"/>
<path d="M0 0 C2.0625 0.4375 2.0625 0.4375 4 1 C4 2.32 4 3.64 4 5 C1 7 1 7 -2.5 6.9375 C-6 6 -6 6 -7.9375 3.4375 C-8.288125 2.633125 -8.63875 1.82875 -9 1 C-7.700625 1.020625 -6.40125 1.04125 -5.0625 1.0625 C-3.70834367 1.08399454 -2.35243917 1.07148199 -1 1 C-0.67 0.67 -0.34 0.34 0 0 Z " fill="#E15807" transform="translate(74,169)"/>
<path d="M0 0 C0.99 0 1.98 0 3 0 C3 0.66 3 1.32 3 2 C2.01 2 1.02 2 0 2 C0 2.66 0 3.32 0 4 C0.66 4.33 1.32 4.66 2 5 C1.01 7.97 0.02 10.94 -1 14 C-2.65 13.67 -4.3 13.34 -6 13 C-5.01 9.7 -4.02 6.4 -3 3 C-2.34 3 -1.68 3 -1 3 C-0.67 2.01 -0.34 1.02 0 0 Z " fill="#84350B" transform="translate(128,138)"/>
<path d="M0 0 C0.99 0.33 1.98 0.66 3 1 C3.63019694 9.19256018 3.63019694 9.19256018 1 12.5625 C0.34 13.036875 -0.32 13.51125 -1 14 C-3.22532845 9.68024478 -3.06433568 6.70081591 -2 2 C-1.34 1.34 -0.68 0.68 0 0 Z " fill="#282220" transform="translate(77,142)"/>
<path d="M0 0 C0.66 0.33 1.32 0.66 2 1 C1.61471495 7.16456078 -0.47086025 10.98627748 -4 16 C-5.625 14.3125 -5.625 14.3125 -7 12 C-6.00111635 7.38016311 -2.77591441 3.72556934 0 0 Z " fill="#F26512" transform="translate(84,79)"/>
<path d="M0 0 C4.03249014 0.86410503 5.34085749 3.26318304 7.625 6.5625 C8.5625 8.75 8.5625 8.75 8.625 10.5625 C7.635 12.0475 7.635 12.0475 6.625 13.5625 C6.5425 12.94375 6.46 12.325 6.375 11.6875 C5.81241541 9.37812433 5.81241541 9.37812433 3.5625 8.3125 C2.923125 8.065 2.28375 7.8175 1.625 7.5625 C1.955 6.5725 2.285 5.5825 2.625 4.5625 C-1.09236641 4.21349442 -1.09236641 4.21349442 -4.1875 6.0625 C-4.579375 6.5575 -4.97125 7.0525 -5.375 7.5625 C-5.375 3.5625 -5.375 3.5625 -4.1875 1.8125 C-2.375 0.5625 -2.375 0.5625 0 0 Z " fill="#130F0D" transform="translate(110.375,10.4375)"/>
<path d="M0 0 C3 0.3125 3 0.3125 6 1 C6.33 1.66 6.66 2.32 7 3 C6.05125 3.28875 5.1025 3.5775 4.125 3.875 C0.94788422 4.76825109 0.94788422 4.76825109 -1 7 C-4 9 -4 9 -6.6875 8.625 C-7.450625 8.41875 -8.21375 8.2125 -9 8 C-9 7.01 -9 6.02 -9 5 C-7.68 5.66 -6.36 6.32 -5 7 C-5 6.34 -5 5.68 -5 5 C-5.66 4.67 -6.32 4.34 -7 4 C-5.5459375 3.2884375 -5.5459375 3.2884375 -4.0625 2.5625 C-1.19522563 1.29806053 -1.19522563 1.29806053 0 0 Z " fill="#4D2E1D" transform="translate(116,79)"/>
<path d="M0 0 C1.6004368 4.8013104 -1.1278124 8.2387156 -3.25 12.625 C-3.65863281 13.50929687 -4.06726563 14.39359375 -4.48828125 15.3046875 C-4.88917969 16.14515625 -5.29007812 16.985625 -5.703125 17.8515625 C-6.07083008 18.62322754 -6.43853516 19.39489258 -6.81738281 20.18994141 C-8 22 -8 22 -11 23 C-11.66 22.34 -12.32 21.68 -13 21 C-12.56429687 20.48953125 -12.12859375 19.9790625 -11.6796875 19.453125 C-6.7271496 13.40716964 -3.27086669 7.08088723 0 0 Z " fill="#190904" transform="translate(91,152)"/>
<path d="M0 0 C-0.66 1.65 -1.32 3.3 -2 5 C-2.66 4.67 -3.32 4.34 -4 4 C-5.94154448 4.46723899 -5.94154448 4.46723899 -8 5.3125 C-8.70125 5.57675781 -9.4025 5.84101563 -10.125 6.11328125 C-12.18171741 6.9570995 -12.18171741 6.9570995 -14 9 C-14.99 8.67 -15.98 8.34 -17 8 C-11.91426474 2.4655234 -7.69455326 -0.54961095 0 0 Z " fill="#19110E" transform="translate(129,136)"/>
<path d="M0 0 C1.36025069 2.72050137 0.62090277 4.02534817 0 7 C-0.21881019 9.6068127 -0.41012853 12.20220189 -0.5625 14.8125 C-0.60568359 15.50537109 -0.64886719 16.19824219 -0.69335938 16.91210938 C-0.79861453 18.60788686 -0.89972863 20.30392052 -1 22 C-1.33 22 -1.66 22 -2 22 C-2.185625 20.88625 -2.185625 20.88625 -2.375 19.75 C-2.84699359 17.05390537 -2.84699359 17.05390537 -4.08203125 15.109375 C-5.71618352 11.35430171 -4.25799139 7.74647709 -3 4 C-1.375 1.4375 -1.375 1.4375 0 0 Z " fill="#E4E4E3" transform="translate(59,147)"/>
<path d="M0 0 C1.32 0.33 2.64 0.66 4 1 C1.29949239 17.70050761 1.29949239 17.70050761 -3 22 C-4.66617115 22.04063832 -6.33388095 22.042721 -8 22 C-7.01 21.67 -6.02 21.34 -5 21 C-3.86341753 18.75277973 -3.86341753 18.75277973 -3 16 C-2.45279297 14.52853516 -2.45279297 14.52853516 -1.89453125 13.02734375 C-1.53746094 12.00769531 -1.18039063 10.98804688 -0.8125 9.9375 C-0.44769531 8.91527344 -0.08289063 7.89304688 0.29296875 6.83984375 C0.99788528 4.00849394 1.01127653 2.68600199 0 0 Z " fill="#271912" transform="translate(134,134)"/>
<path d="M0 0 C0.33 1.32 0.66 2.64 1 4 C0.01 4.33 -0.98 4.66 -2 5 C-2.33 7.97 -2.66 10.94 -3 14 C-3.99 14.33 -4.98 14.66 -6 15 C-6.33 11.37 -6.66 7.74 -7 4 C-6.67 4.99 -6.34 5.98 -6 7 C-5.7525 6.21625 -5.505 5.4325 -5.25 4.625 C-3.84610901 1.67682892 -2.99324263 1.0975223 0 0 Z " fill="#A17256" transform="translate(70,84)"/>
<path d="M0 0 C2 1 2 1 3 3 C3.66 2.34 4.32 1.68 5 1 C4.93983797 2.7717719 4.85100672 4.54258679 4.75 6.3125 C4.70359375 7.29863281 4.6571875 8.28476562 4.609375 9.30078125 C4 12 4 12 1.953125 13.85546875 C1.30859375 14.23316406 0.6640625 14.61085938 0 15 C0 14.34 0 13.68 0 13 C-0.66 12.67 -1.32 12.34 -2 12 C-1.34 8.04 -0.68 4.08 0 0 Z " fill="#E97B38" transform="translate(68,52)"/>
<path d="M0 0 C0.66 0.33 1.32 0.66 2 1 C1.814375 2.27875 1.62875 3.5575 1.4375 4.875 C0.88849264 9.8956325 0.69837944 15.08173376 2 20 C2.99 20.66 3.98 21.32 5 22 C4.67 22.99 4.34 23.98 4 25 C1 24 1 24 -0.17578125 22.47265625 C-1.40065006 18.79804982 -1.24915509 15.28283076 -1.1875 11.4375 C-1.18685547 10.66986328 -1.18621094 9.90222656 -1.18554688 9.11132812 C-1.15979358 5.82921319 -1.04420321 3.13260963 0 0 Z " fill="#D6D6D6" transform="translate(69,143)"/>
<path d="M0 0 C1.26630883 3.7989265 0.48435184 5.26066748 -0.8125 9 C-1.16957031 10.051875 -1.52664062 11.10375 -1.89453125 12.1875 C-3 15 -3 15 -5 18 C-5.66 18 -6.32 18 -7 18 C-6.3436302 14.28508228 -5.34467543 10.85904561 -4.0625 7.3125 C-3.72347656 6.35988281 -3.38445312 5.40726563 -3.03515625 4.42578125 C-2 2 -2 2 0 0 Z " fill="#EC5D07" transform="translate(135,135)"/>
<path d="M0 0 C0.33 0 0.66 0 1 0 C1 2.31 1 4.62 1 7 C1.99 6.67 2.98 6.34 4 6 C6.35188447 6.59793673 8.68925595 7.25881795 11 8 C11 7.34 11 6.68 11 6 C11.66 6 12.32 6 13 6 C12.34 7.32 11.68 8.64 11 10 C8.36 9.67 5.72 9.34 3 9 C3 9.99 3 10.98 3 12 C4.32 12.33 5.64 12.66 7 13 C3.25 14.125 3.25 14.125 1 13 C-0.29930238 8.71230214 -0.07516774 4.43489655 0 0 Z " fill="#31231B" transform="translate(63,92)"/>
<path d="M0 0 C0.99 0.99 1.98 1.98 3 3 C2.67 3.99 2.34 4.98 2 6 C1.67 6 1.34 6 1 6 C1.061875 7.093125 1.12375 8.18625 1.1875 9.3125 C1 13 1 13 -0.5 14.9375 C-0.995 15.288125 -1.49 15.63875 -2 16 C-2.99020864 12.79857356 -3.0200144 10.20014399 -2.6875 6.875 C-2.60886719 6.00617188 -2.53023438 5.13734375 -2.44921875 4.2421875 C-2 2 -2 2 0 0 Z " fill="#743714" transform="translate(95,72)"/>
<path d="M0 0 C5.11628331 2.0955583 7.6459098 6.13705243 10 11 C9.875 14.5625 9.875 14.5625 9 17 C8.67 17 8.34 17 8 17 C7.87625 16.030625 7.7525 15.06125 7.625 14.0625 C7.41875 13.051875 7.2125 12.04125 7 11 C6.34 10.67 5.68 10.34 5 10 C4.375 7.9375 4.375 7.9375 4 6 C2.02 6.33 0.04 6.66 -2 7 C-1.34 4.69 -0.68 2.38 0 0 Z " fill="#C86326" transform="translate(83,39)"/>
<path d="M0 0 C0.99 0 1.98 0 3 0 C3 3.96 3 7.92 3 12 C1.68 12 0.36 12 -1 12 C-1.02698189 10.37509046 -1.04638757 8.75005367 -1.0625 7.125 C-1.07410156 6.22007813 -1.08570312 5.31515625 -1.09765625 4.3828125 C-1 2 -1 2 0 0 Z " fill="#EF803B" transform="translate(70,30)"/>
<path d="M0 0 C0 3.08073347 -0.38824568 4.13329234 -1.75 6.79296875 C-2.1109375 7.50517578 -2.471875 8.21738281 -2.84375 8.95117188 C-3.2253125 9.68916016 -3.606875 10.42714844 -4 11.1875 C-4.3815625 11.93708984 -4.763125 12.68667969 -5.15625 13.45898438 C-6.09879809 15.30873499 -7.04870093 17.15473462 -8 19 C-9.32 18.67 -10.64 18.34 -12 18 C-4.88610478 5.33029613 -4.88610478 5.33029613 0 0 Z " fill="#E65B08" transform="translate(108,126)"/>
<path d="M0 0 C2 2 2 2 2.22705078 4.06298828 C2.21657715 4.89040527 2.20610352 5.71782227 2.1953125 6.5703125 C2.18886719 7.46621094 2.18242187 8.36210938 2.17578125 9.28515625 C2.15902344 10.22230469 2.14226562 11.15945312 2.125 12.125 C2.11597656 13.06988281 2.10695312 14.01476562 2.09765625 14.98828125 C2.07404522 17.32577292 2.04111516 19.66276123 2 22 C1.34 22.33 0.68 22.66 0 23 C-0.19635974 19.54210946 -0.38058252 16.08367803 -0.5625 12.625 C-0.61857422 11.64015625 -0.67464844 10.6553125 -0.73242188 9.640625 C-0.80493164 8.22910156 -0.80493164 8.22910156 -0.87890625 6.7890625 C-0.9260376 5.91975098 -0.97316895 5.05043945 -1.02172852 4.15478516 C-1 2 -1 2 0 0 Z " fill="#DC5B0C" transform="translate(137,96)"/>
<path d="M0 0 C-0.33 0.99 -0.66 1.98 -1 3 C-1.99 2.67 -2.98 2.34 -4 2 C-6.33299825 1.96045766 -8.66708189 1.95598268 -11 2 C-11.33 2.99 -11.66 3.98 -12 5 C-12.99 5.33 -13.98 5.66 -15 6 C-15 4.02 -15 2.04 -15 0 C-9.52622954 -1.86108196 -5.31840974 -2.65920487 0 0 Z " fill="#0E0603" transform="translate(92,24)"/>
<path d="M0 0 C0.33 0 0.66 0 1 0 C1.03738281 1.00160156 1.07476562 2.00320312 1.11328125 3.03515625 C1.52008458 12.88391114 1.52008458 12.88391114 5 22 C5.33 22.66 5.66 23.32 6 24 C4.68 24.33 3.36 24.66 2 25 C-1.78951433 16.51148791 -0.9178241 9.01236917 0 0 Z " fill="#3D2114" transform="translate(59,158)"/>
<path d="M0 0 C1.32 0 2.64 0 4 0 C4 0.66 4 1.32 4 2 C3.38125 2.5775 2.7625 3.155 2.125 3.75 C-1.92133582 8.03435557 -2.31836837 13.3197364 -3 19 C-3.66 19 -4.32 19 -5 19 C-5.61897694 11.88176515 -3.14955574 6.29911148 0 0 Z " fill="#303030" transform="translate(57,145)"/>
<path d="M0 0 C2.75 -0.3125 2.75 -0.3125 6 0 C8.375 2.5 8.375 2.5 10 5 C9.67 5.66 9.34 6.32 9 7 C7.02 6.34 5.04 5.68 3 5 C3 4.34 3 3.68 3 3 C1.35 3.66 -0.3 4.32 -2 5 C-1.34 3.35 -0.68 1.7 0 0 Z " fill="#171311" transform="translate(118,86)"/>
<path d="M0 0 C1.98 0.495 1.98 0.495 4 1 C4 2.32 4 3.64 4 5 C4.99 5.33 5.98 5.66 7 6 C6.67 7.65 6.34 9.3 6 11 C3.35247996 8.42215154 1.05567935 6.08351902 -1 3 C-0.67 2.01 -0.34 1.02 0 0 Z " fill="#8D3B0E" transform="translate(84,44)"/>
<path d="M0 0 C4.39366678 0.50213335 6.87182342 1.87182342 10 5 C10.8125 7.75 10.8125 7.75 11 10 C6.66314164 10 5.0556673 7.91985986 2 5 C2 4.01 2 3.02 2 2 C1.34 1.34 0.68 0.68 0 0 Z " fill="#5A311A" transform="translate(90,14)"/>
<path d="M0 0 C0.33 0 0.66 0 1 0 C1.22197585 2.10277123 1.42713637 4.20732302 1.625 6.3125 C1.74101563 7.48425781 1.85703125 8.65601563 1.9765625 9.86328125 C2 13 2 13 0 16 C-3.875 15.125 -3.875 15.125 -5 14 C-5.04080783 12.00041636 -5.04254356 9.99954746 -5 8 C-3 11.75 -3 11.75 -3 14 C-2.01 14 -1.02 14 0 14 C0 11.03 0 8.06 0 5 C-0.99 5 -1.98 5 -3 5 C-1.125 1.125 -1.125 1.125 0 0 Z " fill="#DF5A0B" transform="translate(97,51)"/>
<path d="M0 0 C5 7.5 5 7.5 5 11 C5.66 11 6.32 11 7 11 C7 11.66 7 12.32 7 13 C4.1875 13.25 4.1875 13.25 1 13 C-0.9375 11.1875 -0.9375 11.1875 -2 9 C-1.67 8.01 -1.34 7.02 -1 6 C-0.01 6.99 0.98 7.98 2 9 C1.01 6.36 0.02 3.72 -1 1 C-0.67 0.67 -0.34 0.34 0 0 Z " fill="#2B1F19" transform="translate(118,60)"/>
<path d="M0 0 C2.625 0.25 2.625 0.25 4.4375 1.75 C4.829375 2.245 5.22125 2.74 5.625 3.25 C4.965 3.25 4.305 3.25 3.625 3.25 C3.295 4.57 2.965 5.89 2.625 7.25 C0.1875 6.5 0.1875 6.5 -2.375 5.25 C-3.25 3.1875 -3.25 3.1875 -3.375 1.25 C-2.375 0.25 -2.375 0.25 0 0 Z " fill="#B06439" transform="translate(88.375,16.75)"/>
<path d="M0 0 C1.0625 1.8125 1.0625 1.8125 2 4 C1.67 4.99 1.34 5.98 1 7 C0.77410194 10.18408693 0.60695441 13.36153341 0.48242188 16.55078125 C0.29228251 20.18854201 0.06923381 21.89614929 -2 25 C-2.28810976 4.57621951 -2.28810976 4.57621951 0 0 Z " fill="#50200B" transform="translate(64,140)"/>
<path d="M0 0 C0.66 0 1.32 0 2 0 C2.38909985 1.45463481 2.76088029 2.91391207 3.125 4.375 C3.43824219 5.59316406 3.43824219 5.59316406 3.7578125 6.8359375 C3.83773437 7.55007812 3.91765625 8.26421875 4 9 C3.34 9.66 2.68 10.32 2 11 C1.34 9.68 0.68 8.36 0 7 C-0.33 8.98 -0.66 10.96 -1 13 C-1.99 12.67 -2.98 12.34 -4 12 C-2.66666667 8 -1.33333333 4 0 0 Z " fill="#342F2D" transform="translate(74,15)"/>
<path d="M0 0 C1.9375 0.375 1.9375 0.375 4 1 C5.60725635 4.21451269 5.05748185 7.43612536 5 11 C4.34 10.67 3.68 10.34 3 10 C2.59270772 7.67843403 2.25561323 5.3431213 2 3 C1.01 3.495 1.01 3.495 0 4 C-0.40729228 6.32156597 -0.74438677 8.6568787 -1 11 C-1.66 10.67 -2.32 10.34 -3 10 C-2.25 3.375 -2.25 3.375 0 0 Z " fill="#B3B2B1" transform="translate(94,70)"/>
<path d="M0 0 C1.8125 2.5 1.8125 2.5 3 5 C2.113125 4.79375 1.22625 4.5875 0.3125 4.375 C-3.2252711 3.97449761 -4.86632967 4.43316484 -8 6 C-8 4.68 -8 3.36 -8 2 C-4.78697711 -0.14201526 -3.73290719 -0.65325876 0 0 Z " fill="#1D1A1A" transform="translate(79,64)"/>
<path d="M0 0 C0.99 0 1.98 0 3 0 C3 0.66 3 1.32 3 2 C2.34 2 1.68 2 1 2 C1 2.66 1 3.32 1 4 C1.99 4.33 2.98 4.66 4 5 C3.34 5 2.68 5 2 5 C1.67 5.66 1.34 6.32 1 7 C1 6.34 1 5.68 1 5 C0.34 5 -0.32 5 -1 5 C-1 5.66 -1 6.32 -1 7 C-1.66 7 -2.32 7 -3 7 C-3.33 9.31 -3.66 11.62 -4 14 C-4.33 14 -4.66 14 -5 14 C-4.53519342 8.51528241 -4.09565482 4.09565482 0 0 Z " fill="#0A0503" transform="translate(73,131)"/>
<path d="M0 0 C0.99 1.32 1.98 2.64 3 4 C1.4169423 8.2742558 -1.50568404 10.26531794 -5 13 C-4.54554036 11.58208592 -4.08625056 10.16571954 -3.625 8.75 C-3.24214844 7.56664062 -3.24214844 7.56664062 -2.8515625 6.359375 C-2.04826333 4.13372042 -1.10288338 2.09068328 0 0 Z " fill="#C9C9C9" transform="translate(109,138)"/>
<path d="M0 0 C0.66 0.33 1.32 0.66 2 1 C1.50628906 1.44730469 1.01257813 1.89460937 0.50390625 2.35546875 C-4.41263727 6.77954779 -4.41263727 6.77954779 -6 13 C-7.32 13.33 -8.64 13.66 -10 14 C-7.96733835 8.24079198 -5.22242519 3.35727334 0 0 Z " fill="#E15908" transform="translate(101,166)"/>
<path d="M0 0 C1.26977059 3.80931176 0.52074507 5.81618993 -0.4375 9.6875 C-0.72496094 10.86699219 -1.01242188 12.04648438 -1.30859375 13.26171875 C-1.53675781 14.16535156 -1.76492187 15.06898438 -2 16 C-3.32 16.33 -4.64 16.66 -6 17 C-4.02 11.39 -2.04 5.78 0 0 Z " fill="#F0DFD3" transform="translate(86,120)"/>
<path d="M0 0 C5.43637979 4.47701865 8.44570786 10.49903842 11 17 C10.67 17.66 10.34 18.32 10 19 C7.39216102 16.73168576 6.47215731 14.93592662 5.5625 11.625 C4.35669621 7.68048228 2.7446113 5.12317837 0 2 C0 1.34 0 0.68 0 0 Z " fill="#D3590F" transform="translate(110,52)"/>
<path d="M0 0 C1.5625 1.75 1.5625 1.75 3 4 C2.6875 6.25 2.6875 6.25 2 8 C1.01 7.34 0.02 6.68 -1 6 C-2.98 6.99 -2.98 6.99 -5 8 C-5.66 7.01 -6.32 6.02 -7 5 C-6.67 4.01 -6.34 3.02 -6 2 C-6 2.66 -6 3.32 -6 4 C-2.27385847 2.88145414 -2.27385847 2.88145414 0 0 Z " fill="#020201" transform="translate(115,35)"/>
<path d="M0 0 C1 1 1 1 1.0625 3.5625 C1.041875 4.366875 1.02125 5.17125 1 6 C0.67 4.68 0.34 3.36 0 2 C-1.6396875 2.7115625 -1.6396875 2.7115625 -3.3125 3.4375 C-5.53476255 4.40187809 -7.69500485 5.23166828 -10 6 C-8.54794521 1.40182648 -8.54794521 1.40182648 -6.125 -0.375 C-3.64240101 -1.10517617 -2.39756024 -0.9094194 0 0 Z " fill="#281006" transform="translate(120,153)"/>
<path d="M0 0 C0.33 0.99 0.66 1.98 1 3 C-2.3 6.3 -5.6 9.6 -9 13 C-9.66 12.67 -10.32 12.34 -11 12 C-7.37 8.04 -3.74 4.08 0 0 Z " fill="#040303" transform="translate(109,165)"/>
<path d="M0 0 C0.33 0 0.66 0 1 0 C1.66 5.28 2.32 10.56 3 16 C-1 12 -1 12 -1.42578125 9.23828125 C-1.38839844 8.27277344 -1.35101563 7.30726563 -1.3125 6.3125 C-1.28800781 5.33925781 -1.26351562 4.36601562 -1.23828125 3.36328125 C-1 1 -1 1 0 0 Z " fill="#F0610A" transform="translate(65,152)"/>
<path d="M0 0 C2.31 0.33 4.62 0.66 7 1 C7.33 1.99 7.66 2.98 8 4 C7.34 4 6.68 4 6 4 C6 4.66 6 5.32 6 6 C4.35 5.67 2.7 5.34 1 5 C0.67 3.35 0.34 1.7 0 0 Z " fill="#543729" transform="translate(70,159)"/>
<path d="M0 0 C1.61013585 0.73709784 3.21292391 1.49025857 4.8125 2.25 C5.70582031 2.66765625 6.59914063 3.0853125 7.51953125 3.515625 C10.13502213 5.08080065 11.43742551 6.40436131 13 9 C13 9.66 13 10.32 13 11 C12.34 11 11.68 11 11 11 C9.33333333 9.33333333 7.66666667 7.66666667 6 6 C5.0925 5.46375 4.185 4.9275 3.25 4.375 C1 3 1 3 0 0 Z " fill="#CD5711" transform="translate(110,48)"/>
<path d="M0 0 C0.99 0.33 1.98 0.66 3 1 C3.05399736 2.45792884 3.09279177 3.91642712 3.125 5.375 C3.14820312 6.18710937 3.17140625 6.99921875 3.1953125 7.8359375 C3 10 3 10 1 12 C0.01 12 -0.98 12 -2 12 C-1.67 10.35 -1.34 8.7 -1 7 C-0.34 7 0.32 7 1 7 C1.33 6.01 1.66 5.02 2 4 C1.34 4 0.68 4 0 4 C0 2.68 0 1.36 0 0 Z " fill="#DD6E2B" transform="translate(79,32)"/>
<path d="M0 0 C3.26023324 0.22484367 4.93132641 0.5260489 7.625 2.25 C7.625 2.58 7.625 2.91 7.625 3.25 C4.655 3.91 1.685 4.57 -1.375 5.25 C-1.375 4.59 -1.375 3.93 -1.375 3.25 C-2.695 2.92 -4.015 2.59 -5.375 2.25 C-3.375 0.25 -3.375 0.25 0 0 Z " fill="#A84711" transform="translate(84.375,24.75)"/>
<path d="M0 0 C0.33 1.32 0.66 2.64 1 4 C-1.64 5.98 -4.28 7.96 -7 10 C-7.33 7.36 -7.66 4.72 -8 2 C-7.01 3.485 -7.01 3.485 -6 5 C-2.37206002 3.13433512 -2.37206002 3.13433512 0 0 Z " fill="#D1D1D0" transform="translate(74,122)"/>
<path d="M0 0 C3.09902323 3.09902323 2.9898579 5.39147385 3.0625 9.75 C3.041875 10.8225 3.02125 11.895 3 13 C2.566875 12.360625 2.13375 11.72125 1.6875 11.0625 C0.08760823 8.73253997 0.08760823 8.73253997 -3 8 C-2.01 5.36 -1.02 2.72 0 0 Z " fill="#1E1714" transform="translate(137,89)"/>
<path d="M0 0 C0.33 0 0.66 0 1 0 C1 2.31 1 4.62 1 7 C1.66 6.34 2.32 5.68 3 5 C2.67 4.01 2.34 3.02 2 2 C2.99 2 3.98 2 5 2 C5.36923077 7.41538462 5.36923077 7.41538462 3.5 10.375 C3.005 10.91125 2.51 11.4475 2 12 C-0.13586678 8.79619983 -0.23132175 7.98060033 -0.125 4.3125 C-0.10695313 3.50425781 -0.08890625 2.69601563 -0.0703125 1.86328125 C-0.04710938 1.24839844 -0.02390625 0.63351563 0 0 Z " fill="#BE5619" transform="translate(91,93)"/>
<path d="M0 0 C0.66 0 1.32 0 2 0 C2.33 2.64 2.66 5.28 3 8 C1.35 7.67 -0.3 7.34 -2 7 C-2.125 4.625 -2.125 4.625 -2 2 C-1.34 1.34 -0.68 0.68 0 0 Z " fill="#DE7435" transform="translate(95,5)"/>
<path d="M0 0 C0.66 0.33 1.32 0.66 2 1 C1.375 2.875 1.375 2.875 0 5 C-3.125 6.25 -3.125 6.25 -6 7 C-6.33 5.68 -6.66 4.36 -7 3 C-6.21625 2.87625 -5.4325 2.7525 -4.625 2.625 C-1.85942178 2.20882007 -1.85942178 2.20882007 0 0 Z " fill="#18100E" transform="translate(97,176)"/>
<path d="M0 0 C1.65 0.33 3.3 0.66 5 1 C5 1.66 5 2.32 5 3 C4.01 3 3.02 3 2 3 C2 4.32 2 5.64 2 7 C0.35 7 -1.3 7 -3 7 C-2.67 5.35 -2.34 3.7 -2 2 C-1.34 2 -0.68 2 0 2 C0 1.34 0 0.68 0 0 Z " fill="#5C3E2E" transform="translate(72,136)"/>
<path d="M0 0 C0.33 0.66 0.66 1.32 1 2 C1.99 2.33 2.98 2.66 4 3 C3.67 4.65 3.34 6.3 3 8 C1.02 7.34 -0.96 6.68 -3 6 C-2.01 4.02 -1.02 2.04 0 0 Z " fill="#371A0C" transform="translate(92,126)"/>
<path d="M0 0 C3.00617269 3.00617269 2.59585316 5.82381598 3 10 C2.01 10 1.02 10 0 10 C-1.60339848 6.88228073 -2.18974141 5.60988311 -1.125 2.1875 C-0.75375 1.465625 -0.3825 0.74375 0 0 Z " fill="#BD6F40" transform="translate(74,20)"/>
<path d="M0 0 C3.3 0 6.6 0 10 0 C9.67 0.99 9.34 1.98 9 3 C6.03 2.505 6.03 2.505 3 2 C3 2.66 3 3.32 3 4 C2.01 3.67 1.02 3.34 0 3 C0 2.01 0 1.02 0 0 Z " fill="#0D0705" transform="translate(62,182)"/>
<path d="M0 0 C0.99 0.33 1.98 0.66 3 1 C3 1.66 3 2.32 3 3 C3.66 3 4.32 3 5 3 C4.34 4.32 3.68 5.64 3 7 C1.35 7 -0.3 7 -2 7 C-1.34 4.69 -0.68 2.38 0 0 Z " fill="#5C260C" transform="translate(100,110)"/>
<path d="M0 0 C2.91517292 1.07401108 4.77810176 1.77810176 7 4 C5.75 5.5625 5.75 5.5625 4 7 C1.8125 6.6875 1.8125 6.6875 0 6 C0.99 5.67 1.98 5.34 3 5 C3.33 4.34 3.66 3.68 4 3 C3.34 3 2.68 3 2 3 C1.67 3.66 1.34 4.32 1 5 C0.34 4.67 -0.32 4.34 -1 4 C-0.67 2.68 -0.34 1.36 0 0 Z " fill="#150A06" transform="translate(74,70)"/>
<path d="M0 0 C4.05928044 0.92256374 5.71365184 1.64583254 8.375 4.9375 C10 8 10 8 10 11 C9.34 11 8.68 11 8 11 C7.62875 10.071875 7.2575 9.14375 6.875 8.1875 C4.69057041 4.4739697 2.93281241 3.57312496 -1 2 C-0.67 1.34 -0.34 0.68 0 0 Z " fill="#2D2420" transform="translate(115,49)"/>
<path d="M0 0 C0.33 0.99 0.66 1.98 1 3 C-2.3 5.64 -5.6 8.28 -9 11 C-9 8 -9 8 -7.03125 5.95703125 C-6.1959375 5.24933594 -5.360625 4.54164063 -4.5 3.8125 C-3.6646875 3.09707031 -2.829375 2.38164062 -1.96875 1.64453125 C-1.3190625 1.10183594 -0.669375 0.55914062 0 0 Z " fill="#130803" transform="translate(109,157)"/>
<path d="M0 0 C0.99 0.33 1.98 0.66 3 1 C3 1.99 3 2.98 3 4 C2.34 4 1.68 4 1 4 C1 4.99 1 5.98 1 7 C0.34 7 -0.32 7 -1 7 C-1.33 7.99 -1.66 8.98 -2 10 C-2.66 9.34 -3.32 8.68 -4 8 C-2.68 5.36 -1.36 2.72 0 0 Z " fill="#58250C" transform="translate(97,117)"/>
<path d="M0 0 C3.50423232 3.03700134 4.93765527 5.48503491 6 10 C6.07522969 12.33212027 6.09325876 14.6685311 6 17 C5.67 17 5.34 17 5 17 C4.35284867 14.9170757 3.70732834 12.83364461 3.0625 10.75 C2.70285156 9.58984375 2.34320313 8.4296875 1.97265625 7.234375 C1.24933363 4.82910942 0.57457589 2.44345956 0 0 Z " fill="#C6510E" transform="translate(102,25)"/>
<path d="M0 0 C1.9375 0.375 1.9375 0.375 4 1 C5.20272819 3.40545638 5.10071472 4.94996953 5.0625 7.625 C5.05347656 8.44226562 5.04445313 9.25953125 5.03515625 10.1015625 C5.02355469 10.72804688 5.01195313 11.35453125 5 12 C4.67 12 4.34 12 4 12 C3.67 9.03 3.34 6.06 3 3 C2.01 3 1.02 3 0 3 C0 3.66 0 4.32 0 5 C-0.66 5 -1.32 5 -2 5 C-1.34 3.35 -0.68 1.7 0 0 Z " fill="#20120C" transform="translate(70,27)"/>
<path d="M0 0 C1.15957207 3.47871621 0.77456651 4.34219645 -0.4375 7.6875 C-0.72496094 8.49574219 -1.01242188 9.30398437 -1.30859375 10.13671875 C-1.53675781 10.75160156 -1.76492187 11.36648437 -2 12 C-2.185625 11.1028125 -2.185625 11.1028125 -2.375 10.1875 C-2.95475985 7.73768652 -2.95475985 7.73768652 -5 5 C-3.35 3.35 -1.7 1.7 0 0 Z " fill="#070403" transform="translate(63,139)"/>
<path d="M0 0 C0.99 0.495 0.99 0.495 2 1 C2.4140625 3.28515625 2.4140625 3.28515625 2.625 6.0625 C2.69976562 6.98160156 2.77453125 7.90070312 2.8515625 8.84765625 C2.92503906 9.91306641 2.92503906 9.91306641 3 11 C2.01 11.33 1.02 11.66 0 12 C0 8.04 0 4.08 0 0 Z " fill="#EAAC82" transform="translate(68,52)"/>
<path d="M0 0 C0.33 0.66 0.66 1.32 1 2 C1.66 2 2.32 2 3 2 C5.27678571 8.96428571 5.27678571 8.96428571 4 13 C3.13372601 11.40233897 2.28233535 9.79660056 1.4375 8.1875 C0.96183594 7.29417969 0.48617187 6.40085937 -0.00390625 5.48046875 C-1 3 -1 3 0 0 Z " fill="#B44A0F" transform="translate(101,30)"/>
<path d="M0 0 C0.66 0 1.32 0 2 0 C2 3.3 2 6.6 2 10 C1.01 10 0.02 10 -1 10 C-0.67 6.7 -0.34 3.4 0 0 Z " fill="#F9E9DE" transform="translate(90,107)"/>
<path d="M0 0 C0.99 0.66 1.98 1.32 3 2 C0.03 4.475 0.03 4.475 -3 7 C-3.66 6.34 -4.32 5.68 -5 5 C-3.35 3.35 -1.7 1.7 0 0 Z " fill="#321508" transform="translate(110,121)"/>
<path d="M0 0 C0.66 0 1.32 0 2 0 C2.33 2.31 2.66 4.62 3 7 C1.68 7 0.36 7 -1 7 C-1.04254356 5.00045254 -1.04080783 2.99958364 -1 1 C-0.67 0.67 -0.34 0.34 0 0 Z " fill="#F55E04" transform="translate(70,35)"/>
<path d="M0 0 C0.99 0 1.98 0 3 0 C4.125 2.8125 4.125 2.8125 5 6 C4.01 7.485 4.01 7.485 3 9 C2.87625 8.071875 2.87625 8.071875 2.75 7.125 C2.18741541 4.81562433 2.18741541 4.81562433 -0.0625 3.75 C-0.701875 3.5025 -1.34125 3.255 -2 3 C-1.34 2.01 -0.68 1.02 0 0 Z " fill="#2B1911" transform="translate(114,15)"/>
<path d="M0 0 C0 3.94405202 -1.49401172 5.0517785 -4 8 C-4.99 9.485 -4.99 9.485 -6 11 C-6.33 10.34 -6.66 9.68 -7 9 C-7.66 8.67 -8.32 8.34 -9 8 C-6.03 5.36 -3.06 2.72 0 0 Z " fill="#CBCBCA" transform="translate(91,135)"/>
<path d="M0 0 C0 0.99 0 1.98 0 3 C-3 5 -3 5 -6 5 C-6 4.01 -6 3.02 -6 2 C-6.66 1.67 -7.32 1.34 -8 1 C-5.07175348 0.02391783 -3.04386724 -0.08226668 0 0 Z " fill="#5B3520" transform="translate(88,136)"/>
<path d="M0 0 C0.66 0.66 1.32 1.32 2 2 C0.515 4.475 0.515 4.475 -1 7 C-3 6 -3 6 -4 3 C-4.66 3.66 -5.32 4.32 -6 5 C-6 3.68 -6 2.36 -6 1 C-5.38125 1.20625 -4.7625 1.4125 -4.125 1.625 C-3.073125 1.810625 -3.073125 1.810625 -2 2 C-1.34 1.34 -0.68 0.68 0 0 Z " fill="#3A1608" transform="translate(95,101)"/>
<path d="M0 0 C1.32 0.66 2.64 1.32 4 2 C4 2.99 4 3.98 4 5 C2.02 5.66 0.04 6.32 -2 7 C-1.34 4.69 -0.68 2.38 0 0 Z " fill="#C7713E" transform="translate(83,39)"/>
<path d="M0 0 C0.99 0 1.98 0 3 0 C3.33 0.99 3.66 1.98 4 3 C2 5 2 5 -1 6 C-1.66 5.34 -2.32 4.68 -3 4 C-1.6875 2 -1.6875 2 0 0 Z " fill="#3A2820" transform="translate(80,155)"/>
<path d="M0 0 C0.33 0.99 0.66 1.98 1 3 C-0.65 4.32 -2.3 5.64 -4 7 C-4.66 6.01 -5.32 5.02 -6 4 C-4.02 2.68 -2.04 1.36 0 0 Z " fill="#F9F8F8" transform="translate(79,154)"/>
<path d="M0 0 C0 3.44360632 -0.79591532 4.74795392 -2.5 7.6875 C-2.9640625 8.49574219 -3.428125 9.30398437 -3.90625 10.13671875 C-4.44765625 11.05904297 -4.44765625 11.05904297 -5 12 C-5.66 11.01 -6.32 10.02 -7 9 C-4.69 6.03 -2.38 3.06 0 0 Z " fill="#CE550D" transform="translate(108,126)"/>
<path d="M0 0 C-0.33 4.62 -0.66 9.24 -1 14 C-1.33 14 -1.66 14 -2 14 C-2.33 9.71 -2.66 5.42 -3 1 C-1 0 -1 0 0 0 Z " fill="#3A2D26" transform="translate(107,65)"/>
<path d="M0 0 C0.33 0.99 0.66 1.98 1 3 C1.66 3 2.32 3 3 3 C3 5.64 3 8.28 3 11 C2.34 9.68 1.68 8.36 1 7 C0.34 7 -0.32 7 -1 7 C-0.67 4.69 -0.34 2.38 0 0 Z " fill="#662C0F" transform="translate(103,53)"/>
<path d="M0 0 C0.66 0.33 1.32 0.66 2 1 C2 1.66 2 2.32 2 3 C-1.20269206 5.32923059 -4.44687712 7.26978364 -8 9 C-7.04270084 7.87411986 -6.08412105 6.7493285 -5.125 5.625 C-4.59132813 4.99851563 -4.05765625 4.37203125 -3.5078125 3.7265625 C-2.38567993 2.44163349 -1.20628025 1.20628025 0 0 Z " fill="#D4580F" transform="translate(114,150)"/>
<path d="M0 0 C0.33 0 0.66 0 1 0 C1 1.98 1 3.96 1 6 C1.66 6.33 2.32 6.66 3 7 C2.34 8.32 1.68 9.64 1 11 C-0.32 10.67 -1.64 10.34 -3 10 C-2.34 9.34 -1.68 8.68 -1 8 C-0.54188325 6.02764667 -0.54188325 6.02764667 -0.375 3.875 C-0.25125 2.59625 -0.1275 1.3175 0 0 Z " fill="#C2C3C2" transform="translate(80,144)"/>
<path d="M0 0 C0.99 1.32 1.98 2.64 3 4 C2.01 4.33 1.02 4.66 0 5 C0.66 6.32 1.32 7.64 2 9 C1.01 9.33 0.02 9.66 -1 10 C-1.33 7.36 -1.66 4.72 -2 2 C-1.34 2 -0.68 2 0 2 C0 1.34 0 0.68 0 0 Z " fill="#3F2B22" transform="translate(93,90)"/>
<path d="M0 0 C2 3 2 3 2 6 C2.66 6 3.32 6 4 6 C3.67 7.32 3.34 8.64 3 10 C0.11192273 7.61419704 -0.61954948 5.70939253 -1 2 C-0.67 1.34 -0.34 0.68 0 0 Z " fill="#4B1F0B" transform="translate(77,30)"/>
<path d="M0 0 C1.32 0.66 2.64 1.32 4 2 C3.01 2.66 2.02 3.32 1 4 C1 5.32 1 6.64 1 8 C0.34 8 -0.32 8 -1 8 C-1.04241723 5.66705225 -1.04092937 3.33297433 -1 1 C-0.67 0.67 -0.34 0.34 0 0 Z M-5 8 C-3.68 8.33 -2.36 8.66 -1 9 C-1.99 9.495 -1.99 9.495 -3 10 C-3.66 9.34 -4.32 8.68 -5 8 Z " fill="#302E2D" transform="translate(85,14)"/>
<path d="M0 0 C0.99 0 1.98 0 3 0 C3 1.98 3 3.96 3 6 C2.01 6.33 1.02 6.66 0 7 C0 4.69 0 2.38 0 0 Z " fill="#E5702A" transform="translate(76,145)"/>
<path d="M0 0 C0.66 0.99 1.32 1.98 2 3 C0.02 5.31 -1.96 7.62 -4 10 C-4.66 9.67 -5.32 9.34 -6 9 C-4.02 6.03 -2.04 3.06 0 0 Z " fill="#C9530E" transform="translate(87,176)"/>
<path d="M0 0 C0.66 0.33 1.32 0.66 2 1 C2 1.66 2 2.32 2 3 C-0.31 4.32 -2.62 5.64 -5 7 C-3.75023244 3.34683329 -3.32901247 2.21934164 0 0 Z " fill="#140E0C" transform="translate(115,160)"/>
<path d="M0 0 C0.66 0 1.32 0 2 0 C0.62845496 2.95409701 -0.98863724 5.44008376 -3 8 C-3.66 7.67 -4.32 7.34 -5 7 C-1.125 1.125 -1.125 1.125 0 0 Z " fill="#D0540B" transform="translate(103,157)"/>
<path d="M0 0 C1.32 0.66 2.64 1.32 4 2 C3.34 3.65 2.68 5.3 2 7 C0.68 6.34 -0.64 5.68 -2 5 C-1.34 3.35 -0.68 1.7 0 0 Z " fill="#291B15" transform="translate(87,141)"/>
<path d="M0 0 C1.32 0.33 2.64 0.66 4 1 C3.67 2.65 3.34 4.3 3 6 C2.01 5.34 1.02 4.68 0 4 C0 2.68 0 1.36 0 0 Z " fill="#6F300F" transform="translate(87,49)"/>
<path d="M0 0 C2.50298434 2.93828597 3.46930939 5.17902761 4 9 C3.67 8.34 3.34 7.68 3 7 C0.97536745 6.34786708 0.97536745 6.34786708 -1 6 C-0.67 4.02 -0.34 2.04 0 0 Z " fill="#281006" transform="translate(101,25)"/>
<path d="M0 0 C0.66 0 1.32 0 2 0 C2.66 1.65 3.32 3.3 4 5 C3.01 5.495 3.01 5.495 2 6 C-0.625 5.0625 -0.625 5.0625 -3 4 C-1.625 2 -1.625 2 0 0 Z " fill="#0A0604" transform="translate(89,12)"/>
<path d="M0 0 C0.66 0 1.32 0 2 0 C0.25 5.75 0.25 5.75 -2 8 C-3 5 -3 5 -1.6875 2.3125 C-1.130625 1.549375 -0.57375 0.78625 0 0 Z " fill="#281005" transform="translate(94,169)"/>
<path d="M0 0 C0.66 0 1.32 0 2 0 C2.33 2.31 2.66 4.62 3 7 C2.01 6.67 1.02 6.34 0 6 C0 4.02 0 2.04 0 0 Z " fill="#2C1B13" transform="translate(70,153)"/>
<path d="M0 0 C1.5625 1.8125 1.5625 1.8125 3 4 C2.67 4.99 2.34 5.98 2 7 C1.01 7 0.02 7 -1 7 C-0.67 4.69 -0.34 2.38 0 0 Z " fill="#E3E2E2" transform="translate(109,138)"/>
<path d="M0 0 C2.56616632 3.84924948 2.55097676 6.4349304 3 11 C2.01 11 1.02 11 0 11 C0 7.37 0 3.74 0 0 Z " fill="#4F200A" transform="translate(105,34)"/>
<path d="M0 0 C1.2065625 0.0309375 1.2065625 0.0309375 2.4375 0.0625 C2.7675 0.7225 3.0975 1.3825 3.4375 2.0625 C1.1275 2.7225 -1.1825 3.3825 -3.5625 4.0625 C-3.5625 0.08689024 -3.5625 0.08689024 0 0 Z " fill="#BC5013" transform="translate(110.5625,13.9375)"/>
<path d="M0 0 C0.99 0 1.98 0 3 0 C2.67 1.98 2.34 3.96 2 6 C1.01 6 0.02 6 -1 6 C-0.67 4.02 -0.34 2.04 0 0 Z " fill="#D2550D" transform="translate(125,146)"/>
<path d="M0 0 C1.33332095 2.6666419 0.67102033 4.16680303 0 7 C-1.32 7.33 -2.64 7.66 -4 8 C-2.25 2.25 -2.25 2.25 0 0 Z " fill="#D0CFCF" transform="translate(59,147)"/>
<path d="M0 0 C0.33 0.99 0.66 1.98 1 3 C-3.75 4.125 -3.75 4.125 -6 3 C-3.375 0 -3.375 0 0 0 Z " fill="#371E12" transform="translate(90,133)"/>
</svg>
